<svg version="1.1" id="Layer_1" xmlns="http://www.w3.org/2000/svg" xmlns:xlink="http://www.w3.org/1999/xlink" x="0px" y="0px"
	 width="100%" viewBox="0 0 512 512" enable-background="new 0 0 512 512" xml:space="preserve">
<path fill="#3AB8D2" opacity="1.000000" stroke="none" 
	d="
M225.000000,1.000002 
	C245.687561,1.000000 266.375122,1.000000 287.218689,1.356874 
	C288.221344,2.139002 289.024567,2.767242 289.921143,2.959106 
	C303.721710,5.912289 317.843536,7.812252 331.264496,11.975568 
	C347.316742,16.955133 362.772278,23.858185 378.760864,30.034197 
	C388.105011,17.528370 403.485107,7.340083 420.135101,2.934222 
	C420.875519,2.738299 421.383667,1.664760 422.000000,1.000006 
	C433.020905,1.000000 444.041779,1.000000 455.188416,1.291062 
	C455.952911,2.042076 456.533966,2.770510 457.239075,2.922242 
	C470.707153,5.820370 481.945618,13.080359 491.542572,22.356424 
	C501.215210,31.705629 507.706665,43.409168 511.049622,56.654491 
	C511.274078,57.543758 512.330505,58.223038 513.000000,58.999992 
	C513.000000,69.687561 513.000000,80.375122 512.706665,91.190964 
	C509.252136,98.668678 506.638397,106.320953 502.784454,113.287094 
	C498.451599,121.118874 493.045868,128.373444 484.695709,132.881302 
	C477.079346,132.436096 469.806641,132.348160 462.555176,131.909180 
	C460.654602,131.794098 458.819977,130.589630 457.135864,129.567444 
	C479.280273,121.828667 494.568665,101.683792 495.850403,78.583427 
	C496.942291,58.904343 489.136810,42.625736 473.696014,30.235531 
	C464.276611,22.677059 453.421539,18.569866 441.370972,18.036978 
	C422.163330,17.187595 406.441895,24.723227 394.346558,39.301765 
	C382.775146,53.248783 378.876740,69.486435 382.736511,87.297905 
	C387.293182,108.325317 400.734650,121.710632 419.861847,130.233643 
	C417.503845,131.054535 415.347931,131.793274 413.150482,131.950226 
	C406.095093,132.454163 399.024384,132.743134 391.644531,132.972137 
	C387.288025,128.786072 382.761017,125.117485 379.297729,120.628258 
	C369.580963,108.033012 364.522400,93.635269 363.970703,77.655678 
	C363.597900,66.857712 365.600830,56.554905 369.686279,46.606907 
	C290.505798,3.723958 200.037048,12.738822 139.630447,49.390553 
	C163.741974,67.820412 187.961334,86.332695 212.191360,104.853142 
	C255.924316,63.238327 321.227570,85.337379 335.644043,134.974365 
	C329.501709,135.318542 323.833710,135.655548 318.005737,135.659637 
	C307.484528,113.994949 291.028564,101.734879 266.815643,100.875305 
	C250.784210,100.306190 237.102692,105.427704 225.646957,116.842010 
	C232.099869,122.822670 238.105408,128.388687 243.717880,134.113953 
	C235.512802,134.531265 227.700775,134.789307 219.583893,134.910736 
	C217.670715,133.584763 216.062378,132.395386 214.562668,131.286346 
	C213.648788,132.688522 212.880753,133.866959 211.639160,135.036163 
	C205.736801,134.672043 200.308014,134.317139 194.934509,133.583191 
	C196.964767,128.638046 198.939758,124.071938 201.053268,119.185600 
	C190.165314,110.756424 179.446045,102.208519 168.462051,94.015480 
	C153.715317,83.015755 138.783783,72.262779 123.848259,61.519726 
	C123.011299,60.917698 120.973602,60.819569 120.242973,61.411076 
	C110.312874,69.450386 100.244148,77.351494 90.745651,85.883446 
	C74.915596,100.102669 62.871719,117.484764 50.697952,134.953384 
	C44.243923,134.572006 38.204853,134.282928 32.206009,133.647263 
	C32.627110,132.589096 32.949928,131.838516 33.397621,131.171814 
	C39.534660,122.032295 39.216480,122.233528 33.439930,112.846230 
	C20.747208,92.219673 8.816105,71.187729 2.909041,47.365032 
	C2.765892,46.787727 1.657951,46.449654 1.000000,46.000000 
	C1.000000,36.979103 1.000000,27.958208 1.248842,18.807518 
	C1.962636,18.229555 2.640424,17.867016 2.860386,17.320286 
	C5.821062,9.961348 10.653107,4.681450 18.621868,2.714065 
	C18.873627,2.651910 18.879499,1.593807 19.000000,1.000000 
	C27.354233,1.000000 35.708466,1.000000 44.190628,1.298763 
	C44.966423,2.052374 45.553314,2.672327 46.271240,2.937445 
	C58.096615,7.304365 70.321434,10.815535 81.674255,16.175753 
	C94.268677,22.122192 106.080566,29.729782 118.208443,36.657391 
	C120.623581,38.036945 122.666328,38.754238 125.502571,37.018593 
	C131.155960,33.558998 137.103226,30.566893 143.002792,27.524555 
	C168.221436,14.519563 194.949234,6.416766 223.099487,2.916217 
	C223.801575,2.828910 224.369507,1.662912 225.000000,1.000002 
M38.064278,86.368980 
	C41.862720,92.815224 45.661163,99.261467 49.661064,106.049599 
	C65.562698,84.346382 84.359657,65.610809 106.948822,49.206257 
	C90.684631,40.990158 75.425751,32.989368 59.900215,25.544678 
	C50.012104,20.803205 39.600098,17.378141 28.348463,18.021093 
	C23.828047,18.279406 19.482313,19.666639 19.120348,24.864548 
	C18.720486,30.606709 18.618311,36.586781 19.769903,42.178307 
	C22.982349,57.776257 30.499701,71.712593 38.064278,86.368980 
z"/>
<path fill="#8246B7" opacity="1.000000" stroke="none" 
	d="
M93.000000,513.000000 
	C81.645775,513.000000 70.291542,513.000000 58.730911,512.656616 
	C58.184875,511.958527 57.902348,511.386505 57.497463,511.280090 
	C34.889778,505.339752 18.290678,492.010284 8.284832,471.046753 
	C10.083408,471.513092 11.484785,471.953522 12.872245,472.434174 
	C18.602842,474.419250 23.931383,472.989716 26.357212,469.036438 
	C28.626125,471.803955 30.361822,474.627594 32.573997,477.008575 
	C52.219978,498.153595 83.355865,502.986572 107.435074,485.740936 
	C114.085007,480.978241 119.111244,473.948425 125.309242,467.932129 
	C131.865280,467.616364 137.994553,467.327240 144.232559,467.369659 
	C149.512329,470.123383 154.676682,472.559967 159.855545,474.965302 
	C183.731674,486.054932 209.006439,491.947571 234.798248,495.487976 
	C232.722504,496.206116 230.849884,496.935150 228.972717,496.947021 
	C214.059189,497.041626 199.142914,496.867889 184.231918,497.083893 
	C179.991211,497.145325 175.765167,498.218903 171.256165,498.644775 
	C159.060638,493.490417 147.141342,488.519623 135.120972,483.506653 
	C124.977234,496.999359 111.572792,506.170349 95.172234,511.041656 
	C94.328682,511.292206 93.718719,512.329163 93.000000,513.000000 
z"/>
<path fill="#000000" opacity="1.000000" stroke="none" 
	d="
M468.000000,513.000000 
	C408.312439,513.000000 348.624878,513.000000 288.271973,512.605164 
	C288.279816,511.817078 288.925537,511.140320 289.630219,511.072021 
	C308.743042,509.219727 327.243958,504.559235 345.104034,497.773315 
	C356.181580,493.564392 366.695679,487.872589 377.842834,482.866974 
	C382.861633,480.298462 387.500305,477.709381 391.926208,475.239075 
	C394.992615,476.884186 397.944397,478.467743 401.051208,480.369995 
	C422.075745,492.601807 442.758606,504.910431 466.320587,511.072540 
	C467.001831,511.250732 467.445526,512.337097 468.000000,513.000000 
z"/>
<path fill="#000000" opacity="1.000000" stroke="none" 
	d="
M513.000000,288.000000 
	C513.000000,348.020905 513.000000,408.041779 512.642944,468.769409 
	C511.857147,468.653961 511.335907,467.866364 511.013763,467.004395 
	C507.024689,456.330444 503.064667,445.645599 499.046082,434.598297 
	C492.372040,422.298950 485.942749,410.250946 479.024078,398.490845 
	C476.509064,394.215973 474.356293,390.503723 478.423157,385.866333 
	C481.833344,379.496552 484.940338,373.301300 488.360291,366.928192 
	C491.726440,359.165710 494.779663,351.581024 498.003967,343.656494 
	C500.395264,336.542969 502.615479,329.769257 504.904236,322.593445 
	C506.593201,314.459625 508.213562,306.727875 509.902985,298.578613 
	C510.315002,295.625763 510.513184,293.057709 511.074463,290.571625 
	C511.289734,289.618103 512.333618,288.851654 513.000000,288.000000 
z"/>
<path fill="#000000" opacity="1.000000" stroke="none" 
	d="
M224.531342,1.000002 
	C224.369507,1.662912 223.801575,2.828910 223.099487,2.916217 
	C194.949234,6.416766 168.221436,14.519563 143.002792,27.524555 
	C137.103226,30.566893 131.155960,33.558998 125.502571,37.018593 
	C122.666328,38.754238 120.623581,38.036945 118.208443,36.657391 
	C106.080566,29.729782 94.268677,22.122192 81.674255,16.175753 
	C70.321434,10.815535 58.096615,7.304365 46.271240,2.937445 
	C45.553314,2.672327 44.966423,2.052374 44.659279,1.298763 
	C104.687561,1.000000 164.375122,1.000000 224.531342,1.000002 
z"/>
<path fill="#000000" opacity="1.000000" stroke="none" 
	d="
M1.000000,46.468658 
	C1.657951,46.449654 2.765892,46.787727 2.909041,47.365032 
	C8.816105,71.187729 20.747208,92.219673 33.439930,112.846230 
	C39.216480,122.233528 39.534660,122.032295 33.397621,131.171814 
	C32.949928,131.838516 32.627110,132.589096 32.046734,133.972046 
	C30.191692,138.082809 28.536154,141.522232 26.569838,145.128876 
	C24.800623,148.850586 23.342184,152.405029 21.571690,156.132126 
	C19.895102,159.867783 18.530571,163.430786 16.994024,167.331299 
	C15.510356,171.765747 14.198703,175.862732 12.569033,180.156921 
	C10.557837,186.574829 8.864660,192.795517 7.105116,199.423111 
	C6.322093,203.872208 5.605438,207.914398 4.552959,212.183807 
	C3.785485,216.229324 3.353834,220.047623 2.545013,224.033188 
	C1.778563,224.133636 1.389281,224.066818 1.000000,224.000000 
	C1.000000,164.979111 1.000000,105.958214 1.000000,46.468658 
z"/>
<path fill="#8246B6" opacity="1.000000" stroke="none" 
	d="
M377.462677,482.846375 
	C366.695679,487.872589 356.181580,493.564392 345.104034,497.773315 
	C327.243958,504.559235 308.743042,509.219727 289.630219,511.072021 
	C288.925537,511.140320 288.279816,511.817078 287.803284,512.605164 
	C267.312439,513.000000 246.624878,513.000000 225.645264,512.600220 
	C222.246613,511.470795 219.130402,510.779449 216.035049,510.004852 
	C201.197739,506.291687 186.366074,502.556030 171.532410,498.828369 
	C175.765167,498.218903 179.991211,497.145325 184.231918,497.083893 
	C199.142914,496.867889 214.059189,497.041626 228.972717,496.947021 
	C230.849884,496.935150 232.722504,496.206116 235.129822,495.423370 
	C236.108673,495.080505 236.554916,495.123688 237.129120,495.463226 
	C238.806946,497.615356 240.368073,499.004059 242.501892,495.924988 
	C253.732559,495.650452 264.555267,495.897278 275.251434,494.850800 
	C287.602264,493.642487 299.970673,491.889679 312.090759,489.262787 
	C322.884583,486.923370 333.349945,483.068359 344.109894,480.205933 
	C345.081512,480.975647 345.910004,481.817505 346.724457,481.804108 
	C352.580048,481.707855 358.438995,481.173309 364.284424,481.309937 
	C368.686737,481.412811 373.070587,482.305359 377.462677,482.846375 
z"/>
<path fill="#8246B6" opacity="1.000000" stroke="none" 
	d="
M468.468658,513.000000 
	C467.445526,512.337097 467.001831,511.250732 466.320587,511.072540 
	C442.758606,504.910431 422.075745,492.601807 401.410400,480.211182 
	C404.848297,479.155975 408.060730,478.322723 411.320068,478.049652 
	C420.088013,477.315094 428.714294,478.230804 437.476135,480.986511 
	C450.827545,487.392883 463.918091,493.559784 478.422638,495.654968 
	C487.091949,496.907227 494.121735,495.795471 495.670563,488.166534 
	C496.520020,483.982605 495.399261,479.398651 495.578705,475.009705 
	C501.660339,474.682892 507.330170,474.341431 513.000000,474.000000 
	C513.000000,481.020966 513.000000,488.041901 512.726685,495.210724 
	C508.482208,502.504639 503.521851,508.652100 495.745941,511.985870 
	C495.695068,512.007690 495.909485,512.648315 496.000000,513.000000 
	C486.979095,513.000000 477.958221,513.000000 468.468658,513.000000 
z"/>
<path fill="#000000" opacity="1.000000" stroke="none" 
	d="
M485.047302,133.107437 
	C493.045868,128.373444 498.451599,121.118874 502.784454,113.287094 
	C506.638397,106.320953 509.252136,98.668678 512.706665,91.659622 
	C513.000000,136.354233 513.000000,180.708450 512.659058,225.834656 
	C511.583130,224.055145 510.848083,221.503693 510.070129,218.524200 
	C509.621552,214.740845 509.215912,211.385544 508.744507,207.652252 
	C507.824127,204.169174 506.969452,201.064072 506.069458,197.549652 
	C504.386719,191.413345 502.749329,185.686371 501.060974,179.568298 
	C499.617950,175.116699 498.225952,171.056213 496.775391,166.635559 
	C495.181915,162.835632 493.646912,159.395859 492.053009,155.586121 
	C490.701447,152.464645 489.408783,149.713135 488.057861,146.603882 
	C486.636383,143.727310 485.273163,141.208466 483.925873,138.321518 
	C484.310272,136.338089 484.678802,134.722763 485.047302,133.107437 
z"/>
<path fill="#000000" opacity="1.000000" stroke="none" 
	d="
M421.531342,1.000006 
	C421.383667,1.664760 420.875519,2.738299 420.135101,2.934222 
	C403.485107,7.340083 388.105011,17.528370 378.760864,30.034197 
	C362.772278,23.858185 347.316742,16.955133 331.264496,11.975568 
	C317.843536,7.812252 303.721710,5.912289 289.921143,2.959106 
	C289.024567,2.767242 288.221344,2.139002 287.687347,1.356874 
	C332.354218,1.000000 376.708466,1.000000 421.531342,1.000006 
z"/>
<path fill="#000000" opacity="1.000000" stroke="none" 
	d="
M0.999998,421.000000 
	C1.000000,377.312439 1.000000,333.624878 1.360686,289.188171 
	C2.536051,291.958069 3.350730,295.477142 4.095637,299.404236 
	C6.072919,308.872375 8.119975,317.932465 10.221391,327.362000 
	C13.146996,335.502228 16.018242,343.273010 18.934887,351.425964 
	C21.613882,357.551544 24.247478,363.294983 26.938244,369.402649 
	C28.277994,372.340973 30.760843,375.050629 30.489866,377.449158 
	C30.241985,379.643341 27.014938,381.499481 25.108192,383.511688 
	C25.001522,383.624268 24.963234,383.801605 24.589638,384.084473 
	C13.764353,394.080231 6.380278,405.812317 2.864359,419.893188 
	C2.741179,420.386536 1.643487,420.636566 0.999998,421.000000 
z"/>
<path fill="#000000" opacity="1.000000" stroke="none" 
	d="
M171.256165,498.644806 
	C186.366074,502.556030 201.197739,506.291687 216.035049,510.004852 
	C219.130402,510.779449 222.246613,511.470795 225.176605,512.600220 
	C181.312439,513.000000 137.624878,513.000000 93.468658,513.000000 
	C93.718719,512.329163 94.328682,511.292206 95.172234,511.041656 
	C111.572792,506.170349 124.977234,496.999359 135.120972,483.506653 
	C147.141342,488.519623 159.060638,493.490417 171.256165,498.644806 
z"/>
<path fill="#000000" opacity="1.000000" stroke="none" 
	d="
M513.000000,58.531334 
	C512.330505,58.223038 511.274078,57.543758 511.049622,56.654491 
	C507.706665,43.409168 501.215210,31.705629 491.542572,22.356424 
	C481.945618,13.080359 470.707153,5.820370 457.239075,2.922242 
	C456.533966,2.770510 455.952911,2.042076 455.657043,1.291062 
	C474.927429,1.000000 493.854858,1.000000 513.000000,1.000000 
	C513.000000,20.020340 513.000000,39.041512 513.000000,58.531334 
z"/>
<path fill="#000000" opacity="1.000000" stroke="none" 
	d="
M7.881238,471.039276 
	C18.290678,492.010284 34.889778,505.339752 57.497463,511.280090 
	C57.902348,511.386505 58.184875,511.958527 58.262253,512.656616 
	C39.073208,513.000000 20.146416,513.000000 1.000000,513.000000 
	C1.000000,494.313019 1.000000,475.625153 1.343065,456.206146 
	C3.751166,460.663086 5.816202,465.851166 7.881238,471.039276 
z"/>
<path fill="#8641C4" opacity="1.000000" stroke="none" 
	d="
M0.999998,421.444153 
	C1.643487,420.636566 2.741179,420.386536 2.864359,419.893188 
	C6.380278,405.812317 13.764353,394.080231 24.982044,384.244995 
	C29.434860,384.513275 33.192394,384.747772 36.948586,385.002167 
	C42.001999,385.344421 47.054375,385.702026 51.925629,386.367889 
	C37.486370,392.915588 27.754265,403.535034 22.026331,417.836395 
	C20.314411,422.110687 19.350584,426.684540 17.802067,430.810211 
	C12.040085,429.999512 6.520041,429.499786 0.999999,429.000000 
	C1.000000,426.629425 1.000000,424.258881 0.999998,421.444153 
z"/>
<path fill="#8443BD" opacity="1.000000" stroke="none" 
	d="
M0.999999,429.468689 
	C6.520041,429.499786 12.040085,429.999512 17.786240,431.268799 
	C18.237337,436.803253 17.742050,441.743347 18.848751,446.293793 
	C20.712049,453.955170 23.592402,461.369202 26.044949,468.887268 
	C23.931383,472.989716 18.602842,474.419250 12.872245,472.434174 
	C11.484785,471.953522 10.083408,471.513092 8.284832,471.046753 
	C5.816202,465.851166 3.751166,460.663086 1.343065,455.737488 
	C1.000000,447.312439 1.000000,438.624878 0.999999,429.468689 
z"/>
<path fill="#8443BD" opacity="1.000000" stroke="none" 
	d="
M513.000000,473.583344 
	C507.330170,474.341431 501.660339,474.682892 495.511475,474.611816 
	C494.383240,471.860352 493.957611,469.430237 493.047211,467.197876 
	C488.392334,455.783600 483.612457,444.420319 479.293579,433.114349 
	C486.172974,433.780823 492.635071,434.372192 499.097168,434.963562 
	C503.064667,445.645599 507.024689,456.330444 511.013763,467.004395 
	C511.335907,467.866364 511.857147,468.653961 512.642944,469.238037 
	C513.000000,470.388885 513.000000,471.777802 513.000000,473.583344 
z"/>
<path fill="#7375D5" opacity="1.000000" stroke="none" 
	d="
M4.165409,298.996185 
	C3.350730,295.477142 2.536051,291.958069 1.360686,288.719513 
	C1.000000,282.645599 1.000000,276.291199 1.467259,269.469177 
	C7.234722,269.000916 12.534926,269.000275 17.909355,269.421326 
	C18.323692,272.883545 18.591093,275.934418 19.019018,278.962555 
	C19.916748,285.315155 20.898897,291.655884 21.389992,298.001526 
	C15.344201,298.333099 9.754805,298.664642 4.165409,298.996185 
z"/>
<path fill="#7375D5" opacity="1.000000" stroke="none" 
	d="
M513.000000,287.535339 
	C512.333618,288.851654 511.289734,289.618103 511.074463,290.571625 
	C510.513184,293.057709 510.315002,295.625763 509.445862,298.579529 
	C503.335205,298.996948 497.750702,298.995972 492.253448,298.598633 
	C493.283386,290.132935 494.226105,282.063568 495.626160,273.995361 
	C501.722321,273.997620 507.361176,273.998810 513.000000,274.000000 
	C513.000000,278.356903 513.000000,282.713806 513.000000,287.535339 
z"/>
<path fill="#6D83D9" opacity="1.000000" stroke="none" 
	d="
M17.835131,268.999634 
	C12.534926,269.000275 7.234722,269.000916 1.467259,269.000793 
	C1.000000,261.645752 1.000000,254.291504 1.416715,246.432312 
	C7.168325,245.951569 12.503221,245.975769 17.909103,246.463776 
	C17.931770,254.284927 17.883450,261.642273 17.835131,268.999634 
z"/>
<path fill="#6E82D8" opacity="1.000000" stroke="none" 
	d="
M513.000000,273.531372 
	C507.361176,273.998810 501.722321,273.997620 495.567780,273.572571 
	C495.369202,271.407257 495.910889,269.672394 495.962097,267.923187 
	C496.127228,262.283600 496.111694,256.638702 496.623047,250.996674 
	C502.386841,250.998322 507.693420,250.999161 513.000000,251.000000 
	C513.000000,258.354248 513.000000,265.708496 513.000000,273.531372 
z"/>
<path fill="#698BDB" opacity="1.000000" stroke="none" 
	d="
M513.000000,250.531464 
	C507.693420,250.999161 502.386841,250.998322 496.554230,250.551453 
	C495.668823,244.110931 495.309448,238.116455 495.132690,231.772873 
	C496.961426,230.950119 498.592224,230.144699 500.256683,230.067703 
	C504.496460,229.871597 508.751221,230.000931 513.000000,230.000000 
	C513.000000,236.687637 513.000000,243.375290 513.000000,250.531464 
z"/>
<path fill="#678ADB" opacity="1.000000" stroke="none" 
	d="
M17.838116,245.999969 
	C12.503221,245.975769 7.168325,245.951569 1.416715,245.963684 
	C1.000000,238.979050 1.000000,231.958099 1.000000,224.468567 
	C1.389281,224.066818 1.778563,224.133636 2.831545,224.300949 
	C8.941363,224.938507 14.387481,225.475571 19.882156,226.432251 
	C19.233183,233.234573 18.535650,239.617279 17.838116,245.999969 
z"/>
<path fill="#5D82DA" opacity="1.000000" stroke="none" 
	d="
M513.000000,229.600006 
	C508.751221,230.000931 504.496460,229.871597 500.256683,230.067703 
	C498.592224,230.144699 496.961426,230.950119 494.775208,231.545349 
	C493.878876,227.447540 493.522675,223.228149 493.623779,219.006805 
	C499.425049,218.987335 504.769043,218.969788 510.113037,218.952240 
	C510.848083,221.503693 511.583130,224.055145 512.659058,226.303314 
	C513.000000,227.066666 513.000000,228.133347 513.000000,229.600006 
z"/>
<path fill="#000000" opacity="1.000000" stroke="none" 
	d="
M496.470459,513.000000 
	C495.909485,512.648315 495.695068,512.007690 495.745941,511.985870 
	C503.521851,508.652100 508.482208,502.504639 512.726685,495.679291 
	C513.000000,501.592072 513.000000,507.184174 513.000000,513.000000 
	C507.649017,513.000000 502.294983,513.000000 496.470459,513.000000 
z"/>
<path fill="#000000" opacity="1.000000" stroke="none" 
	d="
M18.530293,1.000000 
	C18.879499,1.593807 18.873627,2.651910 18.621868,2.714065 
	C10.653107,4.681450 5.821062,9.961348 2.860386,17.320286 
	C2.640424,17.867016 1.962636,18.229555 1.248842,18.338860 
	C1.000000,12.405508 1.000000,6.811016 1.000000,1.000000 
	C6.685597,1.000000 12.373091,1.000000 18.530293,1.000000 
z"/>
<path fill="#000000" opacity="1.000000" stroke="none" 
	d="
M17.909103,246.463776 
	C18.535650,239.617279 19.233183,233.234573 19.957170,226.008026 
	C20.599426,220.779526 21.215231,216.394897 21.916029,211.615952 
	C22.943947,207.485977 23.886868,203.750305 24.904200,199.616272 
	C26.689907,192.826035 28.401205,186.434158 30.424305,179.854645 
	C32.101944,175.775589 33.467781,171.884140 34.997513,167.661774 
	C36.737976,163.671692 38.314545,160.012558 40.163445,156.172668 
	C41.995358,152.676636 43.554935,149.361359 45.422161,145.876144 
	C47.524178,142.152710 49.318546,138.599197 51.112915,135.045685 
	C62.871719,117.484764 74.915596,100.102669 90.745651,85.883446 
	C100.244148,77.351494 110.312874,69.450386 120.242973,61.411076 
	C120.973602,60.819569 123.011299,60.917698 123.848259,61.519726 
	C138.783783,72.262779 153.715317,83.015755 168.462051,94.015480 
	C179.446045,102.208519 190.165314,110.756424 201.053268,119.185600 
	C198.939758,124.071938 196.964767,128.638046 194.604645,133.778534 
	C193.440002,138.223541 192.660477,142.094177 191.543854,146.179794 
	C191.055573,147.830750 190.904388,149.266754 190.827103,150.000809 
	C182.417557,150.000809 174.309616,149.525909 166.290405,150.164825 
	C160.782532,150.603653 155.397888,152.589371 149.572067,153.930939 
	C143.747101,156.636215 138.308243,159.294205 132.564301,162.095901 
	C128.800629,165.147278 125.342041,168.054932 121.578156,171.098206 
	C118.480614,174.808151 115.688370,178.382477 112.592361,182.124451 
	C109.578499,187.531616 106.868401,192.771118 104.083527,198.392090 
	C103.062195,202.187515 102.115646,205.601486 101.103088,209.436615 
	C100.747719,213.908386 100.458366,217.959015 100.101845,222.459167 
	C100.078049,225.941147 100.121414,228.973602 100.097198,232.418060 
	C101.982964,239.568787 103.936317,246.307541 105.934830,253.422546 
	C108.708923,258.531799 111.437859,263.264832 114.194984,268.334656 
	C120.112633,274.129852 126.002098,279.588226 132.040131,285.366577 
	C141.681458,292.188080 152.168137,296.126404 163.476456,298.107849 
	C164.509811,298.288910 165.275513,299.997620 166.094147,301.460632 
	C166.309570,308.297363 166.596344,314.670349 166.929626,321.480042 
	C168.372742,328.610748 169.769333,335.304779 171.106033,342.380920 
	C174.345749,350.544891 177.645355,358.326782 181.091965,366.427185 
	C185.785904,373.177521 190.332825,379.609314 195.024124,386.354553 
	C196.140518,387.976410 196.985245,389.406799 198.104172,390.574402 
	C209.896286,402.879578 223.213684,413.090149 238.913559,419.971680 
	C254.340485,426.733612 270.481110,430.846771 287.314117,430.819366 
	C296.765472,430.803925 306.325134,429.611328 315.642273,427.896454 
	C341.077850,423.214752 362.157928,410.349396 380.429596,391.898804 
	C384.764221,386.492218 388.798126,381.244629 392.989563,375.680969 
	C396.376312,369.909821 399.605530,364.454742 402.911713,358.628235 
	C404.937042,353.170898 406.885437,348.085052 408.912415,342.617249 
	C409.773590,339.643921 410.556183,337.052551 411.448456,334.098083 
	C415.353088,338.859070 419.119507,343.451538 423.031250,348.360779 
	C428.078583,355.131653 432.980591,361.585785 437.938721,368.394775 
	C441.957764,374.522705 445.920685,380.295746 450.035522,386.377472 
	C451.508118,388.506622 452.828735,390.327118 454.392761,392.483185 
	C447.186646,401.169830 440.387695,409.951019 432.949493,418.152374 
	C426.648193,425.100159 419.607635,431.377441 412.586304,438.091064 
	C410.971893,439.202087 409.571838,440.070618 408.373230,441.160706 
	C395.422638,452.938873 380.420685,461.658661 365.140533,469.896027 
	C358.279846,473.594604 351.032288,476.575592 343.960266,479.882202 
	C333.349945,483.068359 322.884583,486.923370 312.090759,489.262787 
	C299.970673,491.889679 287.602264,493.642487 275.251434,494.850800 
	C264.555267,495.897278 253.732559,495.650452 242.287033,495.605286 
	C240.072586,495.212524 238.536865,495.189697 237.001160,495.166870 
	C236.554916,495.123688 236.108673,495.080505 235.330841,495.101929 
	C209.006439,491.947571 183.731674,486.054932 159.855545,474.965302 
	C154.676682,472.559967 149.512329,470.123383 144.544159,467.169617 
	C145.686249,463.731354 146.799744,460.867859 147.533768,457.910187 
	C150.334656,446.624237 151.534073,435.286865 148.027466,423.486755 
	C145.157135,406.942413 137.158295,393.747009 124.907112,382.585876 
	C123.311081,381.224640 121.859772,380.176300 120.411293,379.124054 
	C98.423248,363.150726 74.704979,359.394623 49.028130,368.849854 
	C47.974712,369.237762 46.426956,368.283203 45.053799,367.589203 
	C42.370190,361.802795 39.742298,356.381287 37.053997,350.583557 
	C34.034466,342.458466 31.075342,334.709595 28.065254,326.555176 
	C27.810688,325.048950 27.640951,323.940765 27.398104,322.848877 
	C25.555590,314.564606 23.698755,306.283539 21.846386,298.001465 
	C20.898897,291.655884 19.916748,285.315155 19.019018,278.962555 
	C18.591093,275.934418 18.323692,272.883545 17.909355,269.421326 
	C17.883450,261.642273 17.931770,254.284927 17.909103,246.463776 
M39.006115,208.801163 
	C38.303455,212.519272 37.600796,216.237366 36.227081,220.413696 
	C35.873413,223.612534 35.519749,226.811371 35.030396,230.883667 
	C34.742329,239.587006 34.454266,248.290344 34.020802,257.921783 
	C34.166370,266.243500 34.311943,274.565216 34.460567,283.061584 
	C40.181561,282.617432 44.642151,282.556641 48.964596,281.752930 
	C50.182819,281.526398 51.862206,279.114349 51.848904,277.718811 
	C51.783028,270.807831 51.221043,263.901581 50.970383,256.068665 
	C51.353767,247.725983 51.737152,239.383286 52.803013,230.601746 
	C53.147366,227.069473 53.491718,223.537186 54.203495,219.294540 
	C55.080662,215.532028 55.957829,211.769516 56.981640,207.222305 
	C57.692780,204.161469 58.403923,201.100647 59.749466,197.645645 
	C61.777805,191.430237 63.806145,185.214844 66.156311,178.343491 
	C68.063484,174.025070 69.970650,169.706635 72.406250,165.014374 
	C74.547470,161.002930 76.688690,156.991501 79.141556,152.346664 
	C84.054398,146.137085 84.056099,146.134491 77.447365,141.801422 
	C75.405426,140.462616 73.460136,138.891312 71.250671,137.934082 
	C70.339752,137.539429 68.248016,138.085297 67.721741,138.882370 
	C64.693848,143.468353 61.974236,148.257874 58.846775,153.635574 
	C56.950752,157.425537 55.054733,161.215500 53.001953,165.738098 
	C51.295837,170.145935 49.589722,174.553757 47.249195,179.355515 
	C45.459629,185.557175 43.670063,191.758850 41.245132,198.370300 
	C40.551628,201.582367 39.858124,204.794418 39.006115,208.801163 
M57.895515,308.654175 
	C56.726768,304.477936 55.558022,300.301697 54.418228,296.228912 
	C48.927811,297.278595 43.552631,298.306213 37.485031,299.466217 
	C39.132339,306.176666 40.698551,312.556763 42.259438,318.915161 
	C46.436989,317.853333 50.196140,316.904907 53.951389,315.941254 
	C57.348366,315.069580 60.093929,313.778320 57.895515,308.654175 
z"/>
<path fill="#000000" opacity="1.000000" stroke="none" 
	d="
M493.166473,219.008759 
	C493.522675,223.228149 493.878876,227.447540 494.592590,231.894440 
	C495.309448,238.116455 495.668823,244.110931 496.096985,250.550644 
	C496.111694,256.638702 496.127228,262.283600 495.962097,267.923187 
	C495.910889,269.672394 495.369202,271.407257 495.110443,273.571472 
	C494.226105,282.063568 493.283386,290.132935 492.181366,299.010315 
	C490.306519,307.534088 488.591003,315.249847 486.550476,323.168976 
	C485.877197,324.765198 485.600555,326.180725 485.168091,327.546906 
	C483.433746,333.025604 481.651093,338.489014 479.573242,344.136719 
	C476.135498,351.529633 473.010864,358.743866 469.581970,366.125916 
	C467.717468,369.089325 466.157257,371.884918 464.399719,375.034027 
	C462.267426,372.278259 460.240112,369.658173 458.056610,366.731140 
	C452.972961,359.936493 448.045471,353.448822 443.059448,346.609009 
	C437.370850,339.156158 431.740814,332.055450 426.054718,324.604614 
	C425.341217,323.344269 424.698059,322.423340 424.023987,321.525574 
	C419.156921,315.043365 411.850464,309.717773 413.900787,299.559082 
	C413.644531,295.710236 413.610596,292.237335 412.932281,288.895172 
	C411.780121,283.218384 410.221954,277.624023 408.900818,271.603149 
	C405.684326,263.459656 402.401398,255.707977 399.061646,247.594864 
	C394.374115,240.473312 389.743408,233.713226 384.974243,226.641022 
	C381.177368,222.412064 377.518951,218.495239 373.598877,214.331161 
	C369.241516,211.020721 365.145844,207.957535 360.906738,204.580292 
	C356.005493,201.565781 351.247589,198.865311 346.278137,195.902893 
	C341.721924,193.568939 337.377258,191.496918 333.133514,189.473038 
	C334.171021,186.475555 335.117523,183.740982 336.377136,180.780685 
	C337.738556,175.369568 338.786865,170.184158 339.900452,164.537247 
	C339.589600,159.050873 339.213470,154.026001 338.902222,148.573853 
	C338.017548,143.753418 337.067932,139.360291 336.118347,134.967163 
	C321.227570,85.337379 255.924316,63.238327 212.191360,104.853142 
	C187.961334,86.332695 163.741974,67.820412 139.630447,49.390553 
	C200.037048,12.738822 290.505798,3.723958 369.686279,46.606907 
	C365.600830,56.554905 363.597900,66.857712 363.970703,77.655678 
	C364.522400,93.635269 369.580963,108.033012 379.297729,120.628258 
	C382.761017,125.117485 387.288025,128.786072 391.781982,133.285156 
	C395.118866,135.509232 398.003296,137.277420 401.037170,139.368195 
	C422.541931,152.071793 444.725494,153.139084 467.494904,144.473892 
	C468.364746,145.759247 469.159576,146.933731 469.981506,148.469116 
	C471.394623,151.550812 472.780670,154.271622 474.213898,157.355148 
	C475.802155,161.159195 477.343231,164.600510 478.941223,168.420990 
	C480.388031,172.532028 481.777863,176.263916 483.111053,180.375244 
	C484.998352,186.516464 486.942291,192.278259 488.935303,198.447235 
	C489.711365,201.904800 490.438385,204.955154 491.100098,208.416687 
	C491.745331,212.221497 492.455902,215.615128 493.166473,219.008759 
M458.921356,299.415253 
	C457.772583,303.630249 456.487000,307.816711 455.596985,312.085663 
	C455.430206,312.885590 456.653046,314.591034 457.563690,314.895966 
	C462.126068,316.423767 466.797943,317.624695 471.655884,319.004272 
	C473.186646,313.022766 474.653351,307.291565 476.255432,301.031372 
	C470.163025,300.170959 464.643127,299.391418 458.921356,299.415253 
M457.127045,203.433609 
	C456.816803,203.820526 456.182648,204.271988 456.244965,204.584671 
	C457.159515,209.174454 458.039490,213.780716 459.275696,218.287598 
	C459.485291,219.051697 461.433502,219.970993 462.386719,219.792801 
	C467.260803,218.881561 472.072052,217.634048 476.989380,216.484467 
	C475.537476,210.567474 474.153534,204.927429 472.782349,199.339371 
	C467.584473,200.642853 462.718872,201.863022 457.127045,203.433609 
M465.078156,283.953949 
	C469.590576,284.317566 474.102997,284.681152 478.785156,285.058411 
	C479.295746,278.772339 479.755066,273.117249 480.235535,267.201904 
	C474.205566,267.201904 468.931030,267.201904 462.842133,267.201904 
	C462.557556,271.566315 462.747162,276.019318 461.824554,280.228485 
	C461.205933,283.050659 462.944794,282.942719 465.078156,283.953949 
M463.002075,247.501846 
	C463.701019,248.663132 464.339691,250.781479 465.108673,250.829910 
	C469.981934,251.136749 474.884033,250.985718 480.275726,250.985718 
	C479.931244,244.630325 479.625031,238.980957 479.286133,232.728973 
	C472.946045,233.593185 467.466339,234.340118 461.619934,235.137024 
	C462.143921,239.479599 462.572418,243.030838 463.002075,247.501846 
z"/>
<path fill="#000000" opacity="1.000000" stroke="none" 
	d="
M420.044922,129.885147 
	C400.734650,121.710632 387.293182,108.325317 382.736511,87.297905 
	C378.876740,69.486435 382.775146,53.248783 394.346558,39.301765 
	C406.441895,24.723227 422.163330,17.187595 441.370972,18.036978 
	C453.421539,18.569866 464.276611,22.677059 473.696014,30.235531 
	C489.136810,42.625736 496.942291,58.904343 495.850403,78.583427 
	C494.568665,101.683792 479.280273,121.828667 456.806824,129.615875 
	C455.859344,130.043655 455.421753,130.104996 454.721375,130.141357 
	C454.265167,130.399200 454.071747,130.682007 453.455627,130.978607 
	C447.226227,131.603271 441.425323,132.607132 435.610901,132.692505 
	C431.455750,132.753525 427.282501,131.582214 423.024506,130.716690 
	C422.630157,130.370453 422.328644,130.268311 421.700928,130.092209 
	C420.931458,129.973892 420.488190,129.929520 420.044922,129.885147 
z"/>
<path fill="#000000" opacity="1.000000" stroke="none" 
	d="
M37.999275,85.995918 
	C30.499701,71.712593 22.982349,57.776257 19.769903,42.178307 
	C18.618311,36.586781 18.720486,30.606709 19.120348,24.864548 
	C19.482313,19.666639 23.828047,18.279406 28.348463,18.021093 
	C39.600098,17.378141 50.012104,20.803205 59.900215,25.544678 
	C75.425751,32.989368 90.684631,40.990158 106.948822,49.206257 
	C84.359657,65.610809 65.562698,84.346382 49.661064,106.049599 
	C45.661163,99.261467 41.862720,92.815224 37.999275,85.995918 
z"/>
<path fill="#000000" opacity="1.000000" stroke="none" 
	d="
M244.110931,133.954697 
	C238.105408,128.388687 232.099869,122.822670 225.646957,116.842010 
	C237.102692,105.427704 250.784210,100.306190 266.815643,100.875305 
	C291.028564,101.734879 307.484528,113.994949 318.055115,136.032349 
	C319.563660,140.825531 320.862854,144.913116 322.088837,149.438736 
	C322.064972,154.917236 322.114349,159.957718 322.091705,165.405945 
	C320.735901,170.540314 319.452148,175.266937 318.007050,180.315964 
	C315.144867,185.265900 312.444031,189.893448 308.738953,196.241638 
	C303.108093,189.973480 298.607697,184.963684 293.963928,179.649734 
	C291.734772,177.243958 289.519287,175.248337 287.653961,172.966492 
	C287.185669,172.393616 287.841003,170.902237 288.314117,169.802109 
	C292.364838,166.122330 296.667236,162.863083 297.445251,156.827057 
	C297.793762,153.073380 297.813202,149.533325 297.900085,145.597290 
	C296.683838,142.119415 295.400116,139.037521 294.060394,135.606995 
	C284.363831,120.502548 262.673187,120.319725 252.019012,136.308746 
	C251.370438,137.302521 250.863037,137.995956 250.533127,138.446808 
	C248.299820,136.884689 246.205383,135.419693 244.110931,133.954697 
z"/>
<path fill="#000000" opacity="1.000000" stroke="none" 
	d="
M212.112701,135.045380 
	C212.880753,133.866959 213.648788,132.688522 214.562668,131.286346 
	C216.062378,132.395386 217.670715,133.584763 219.722305,135.223907 
	C224.763489,139.487411 229.361420,143.301147 234.089386,147.419800 
	C237.774445,150.830658 241.329468,153.936615 245.023575,157.351288 
	C249.406357,161.456619 253.650085,165.253235 258.032104,169.357178 
	C262.763397,173.809967 267.356445,177.955399 272.084198,182.404449 
	C277.774689,188.153488 283.330444,193.598938 289.028809,199.348145 
	C291.410309,202.086014 293.649200,204.520142 295.525146,206.987793 
	C288.425720,209.645035 281.689209,212.268723 274.489471,214.940216 
	C265.365814,214.288788 256.705383,213.589554 248.029358,212.484009 
	C247.041687,208.369202 246.069611,204.660751 245.060577,200.570496 
	C241.386871,193.445801 237.750153,186.702911 234.055374,179.611389 
	C231.034912,176.159683 228.072510,173.056610 224.965973,169.646881 
	C221.563461,166.856644 218.305069,164.373062 214.903198,161.580750 
	C212.450516,159.512360 210.141266,157.752716 207.899750,155.567749 
	C208.255981,152.092468 208.544495,149.042526 209.008530,145.646729 
	C210.160263,141.882385 211.136490,138.463882 212.112701,135.045380 
z"/>
<path fill="#3AA7D2" opacity="1.000000" stroke="none" 
	d="
M233.959351,147.114883 
	C229.361420,143.301147 224.763489,139.487411 220.027161,135.360504 
	C227.700775,134.789307 235.512802,134.531265 243.717880,134.113953 
	C246.205383,135.419693 248.299820,136.884689 250.533127,138.446808 
	C250.863037,137.995956 251.370438,137.302521 252.416016,136.401245 
	C264.065125,136.462616 275.175110,136.807877 286.287689,136.944778 
	C288.892792,136.976898 291.506622,136.304123 294.116425,135.955627 
	C295.400116,139.037521 296.683838,142.119415 297.443420,145.598633 
	C291.601257,146.369034 286.283203,146.742111 280.651154,146.941071 
	C276.502899,140.548965 272.729736,140.357147 265.639099,146.035065 
	C257.677704,146.017258 250.190094,145.905441 242.707489,146.050934 
	C239.785645,146.107742 236.875061,146.743073 233.959351,147.114883 
z"/>
<path fill="#3AB0D2" opacity="1.000000" stroke="none" 
	d="
M423.117310,130.960785 
	C427.282501,131.582214 431.455750,132.753525 435.610901,132.692505 
	C441.425323,132.607132 447.226227,131.603271 453.650909,130.860992 
	C454.526611,130.566330 454.765015,130.378555 454.984161,130.166321 
	C455.421753,130.104996 455.859344,130.043655 456.625977,129.933899 
	C458.819977,130.589630 460.654602,131.794098 462.555176,131.909180 
	C469.806641,132.348160 477.079346,132.436096 484.695709,132.881302 
	C484.678802,134.722763 484.310272,136.338089 483.400208,138.376740 
	C455.534973,138.881912 428.211334,138.963760 400.887695,139.045593 
	C398.003296,137.277420 395.118866,135.509232 392.097015,133.428040 
	C399.024384,132.743134 406.095093,132.454163 413.150482,131.950226 
	C415.347931,131.793274 417.503845,131.054535 419.861847,130.233643 
	C420.488190,129.929520 420.931458,129.973892 421.869629,130.241745 
	C422.602936,130.649460 422.853851,130.814651 423.117310,130.960785 
z"/>
<path fill="#3AA4D2" opacity="1.000000" stroke="none" 
	d="
M322.162079,149.000702 
	C320.862854,144.913116 319.563660,140.825531 318.215088,136.365234 
	C323.833710,135.655548 329.501709,135.318542 335.644043,134.974365 
	C337.067932,139.360291 338.017548,143.753418 338.445312,148.575195 
	C332.669678,149.002792 327.415863,149.001740 322.162079,149.000702 
z"/>
<path fill="#3AA7D2" opacity="1.000000" stroke="none" 
	d="
M50.697960,134.953384 
	C49.318546,138.599197 47.524178,142.152710 44.947517,145.866943 
	C38.403687,145.672333 32.642147,145.316986 26.880611,144.961639 
	C28.536154,141.522232 30.191692,138.082809 32.006504,134.318634 
	C38.204853,134.282928 44.243923,134.572006 50.697960,134.953384 
z"/>
<path fill="#3AA7D2" opacity="1.000000" stroke="none" 
	d="
M211.639145,135.036163 
	C211.136490,138.463882 210.160263,141.882385 208.551331,145.648224 
	C202.572723,145.985336 197.226837,145.975082 191.880951,145.964828 
	C192.660477,142.094177 193.440002,138.223541 194.549377,134.157562 
	C200.308014,134.317139 205.736801,134.672043 211.639145,135.036163 
z"/>
<path fill="#000000" opacity="1.000000" stroke="none" 
	d="
M26.357212,469.036438 
	C23.592402,461.369202 20.712049,453.955170 18.848751,446.293793 
	C17.742050,441.743347 18.237337,436.803253 18.028177,431.579773 
	C19.350584,426.684540 20.314411,422.110687 22.026331,417.836395 
	C27.754265,403.535034 37.486370,392.915588 52.299370,386.328735 
	C60.211018,384.316193 67.551788,381.435974 74.928062,381.342010 
	C82.329727,381.247681 89.766777,383.931244 97.467949,385.649200 
	C103.169388,389.437317 109.011192,392.475647 113.922058,396.617676 
	C123.017723,404.289337 128.363342,414.471436 131.114349,426.411407 
	C133.111771,434.463440 133.122559,442.286987 131.437851,449.830841 
	C130.048691,456.051270 127.125732,461.929138 124.882477,467.958832 
	C119.111244,473.948425 114.085007,480.978241 107.435074,485.740936 
	C83.355865,502.986572 52.219978,498.153595 32.573997,477.008575 
	C30.361822,474.627594 28.626125,471.803955 26.357212,469.036438 
z"/>
<path fill="#8443BD" opacity="1.000000" stroke="none" 
	d="
M125.309235,467.932129 
	C127.125732,461.929138 130.048691,456.051270 131.437851,449.830841 
	C133.122559,442.286987 133.111771,434.463440 131.509995,426.317932 
	C133.752304,425.541473 135.541183,425.223572 137.342850,425.017670 
	C140.908356,424.610138 144.480911,424.264526 148.050552,423.893311 
	C151.534073,435.286865 150.334656,446.624237 147.533768,457.910187 
	C146.799744,460.867859 145.686249,463.731354 144.435425,466.838135 
	C137.994553,467.327240 131.865280,467.616364 125.309235,467.932129 
z"/>
<path fill="#8344BB" opacity="1.000000" stroke="none" 
	d="
M344.109894,480.205933 
	C351.032288,476.575592 358.279846,473.594604 365.140533,469.896027 
	C380.420685,461.658661 395.422638,452.938873 408.373230,441.160706 
	C409.571838,440.070618 410.971893,439.202087 412.978699,438.251221 
	C418.645782,438.516785 423.645782,438.503510 428.562714,439.136169 
	C430.483795,439.383362 432.218140,441.082031 433.900818,442.424255 
	C425.281708,449.952240 416.799316,457.175629 408.084229,464.597137 
	C417.874481,470.114716 427.494293,475.536194 437.114075,480.957672 
	C428.714294,478.230804 420.088013,477.315094 411.320068,478.049652 
	C408.060730,478.322723 404.848297,479.155975 401.255310,479.892548 
	C397.944397,478.467743 394.992615,476.884186 391.926208,475.239075 
	C387.500305,477.709381 382.861633,480.298462 377.842834,482.866943 
	C373.070587,482.305359 368.686737,481.412811 364.284424,481.309937 
	C358.438995,481.173309 352.580048,481.707855 346.724457,481.804108 
	C345.910004,481.817505 345.081512,480.975647 344.109894,480.205933 
z"/>
<path fill="#8641C2" opacity="1.000000" stroke="none" 
	d="
M434.037537,442.119690 
	C432.218140,441.082031 430.483795,439.383362 428.562714,439.136169 
	C423.645782,438.503510 418.645782,438.516785 413.286591,438.111572 
	C419.607635,431.377441 426.648193,425.100159 432.949493,418.152374 
	C440.387695,409.951019 447.186646,401.169830 454.392761,392.483185 
	C452.828735,390.327118 451.508118,388.506622 450.427063,386.213135 
	C459.817749,385.840393 468.968872,385.940613 478.119965,386.040833 
	C474.356293,390.503723 476.509064,394.215973 479.024078,398.490845 
	C485.942749,410.250946 492.372040,422.298950 499.046082,434.598297 
	C492.635071,434.372192 486.172974,433.780823 478.990631,432.938843 
	C473.739380,424.541809 469.208374,416.395355 464.925568,408.695190 
	C454.502869,419.973755 444.270203,431.046722 434.037537,442.119690 
z"/>
<path fill="#8349C8" opacity="1.000000" stroke="none" 
	d="
M478.423157,385.866333 
	C468.968872,385.940613 459.817749,385.840393 450.275116,385.904480 
	C445.920685,380.295746 441.957764,374.522705 438.415039,368.386719 
	C445.294373,367.695190 451.753601,367.366638 458.212799,367.038086 
	C460.240112,369.658173 462.267426,372.278259 464.399719,375.034027 
	C466.157257,371.884918 467.717468,369.089325 470.056946,366.134155 
	C476.573242,366.351715 482.310272,366.728882 488.047302,367.106018 
	C484.940338,373.301300 481.833344,379.496552 478.423157,385.866333 
z"/>
<path fill="#7868D1" opacity="1.000000" stroke="none" 
	d="
M486.875488,322.965576 
	C488.591003,315.249847 490.306519,307.534088 492.094116,299.406677 
	C497.750702,298.995972 503.335205,298.996948 509.376831,298.997040 
	C508.213562,306.727875 506.593201,314.459625 504.446655,322.594482 
	C498.238800,322.986938 492.557159,322.976257 486.875488,322.965576 
z"/>
<path fill="#7F54CB" opacity="1.000000" stroke="none" 
	d="
M488.360291,366.928192 
	C482.310272,366.728882 476.573242,366.351715 470.361206,365.966339 
	C473.010864,358.743866 476.135498,351.529633 480.048126,344.145020 
	C486.501678,343.981842 492.167236,343.989105 497.832825,343.996338 
	C494.779663,351.581024 491.726440,359.165710 488.360291,366.928192 
z"/>
<path fill="#7B5ECE" opacity="1.000000" stroke="none" 
	d="
M498.003937,343.656494 
	C492.167236,343.989105 486.501678,343.981842 480.361206,343.966339 
	C481.651093,338.489014 483.433746,333.025604 485.168091,327.546906 
	C485.600555,326.180725 485.877197,324.765198 486.550476,323.168976 
	C492.557159,322.976257 498.238800,322.986938 504.378082,322.996582 
	C502.615479,329.769257 500.395264,336.542969 498.003937,343.656494 
z"/>
<path fill="#3C66D2" opacity="1.000000" stroke="none" 
	d="
M30.112503,180.042267 
	C28.401205,186.434158 26.689907,192.826035 24.448402,199.614014 
	C18.335958,199.678818 12.753720,199.347519 7.171483,199.016220 
	C8.864660,192.795517 10.557837,186.574829 13.043991,180.164978 
	C19.262146,179.997986 24.687325,180.020126 30.112503,180.042267 
z"/>
<path fill="#567BD8" opacity="1.000000" stroke="none" 
	d="
M21.831032,212.010254 
	C21.215231,216.394897 20.599426,220.779526 19.908611,225.588409 
	C14.387481,225.475571 8.941363,224.938507 3.208714,224.133682 
	C3.353834,220.047623 3.785485,216.229324 5.027278,212.193100 
	C11.168625,211.986877 16.499828,211.998566 21.831032,212.010254 
z"/>
<path fill="#3A78D2" opacity="1.000000" stroke="none" 
	d="
M30.424305,179.854645 
	C24.687325,180.020126 19.262146,179.997986 13.362009,179.967773 
	C14.198703,175.862732 15.510356,171.765747 17.449512,167.332840 
	C23.662550,167.328842 29.248083,167.660767 34.833614,167.992706 
	C33.467781,171.884140 32.101944,175.775589 30.424305,179.854645 
z"/>
<path fill="#4C71D6" opacity="1.000000" stroke="none" 
	d="
M21.916027,211.615952 
	C16.499828,211.998566 11.168625,211.986877 5.363102,211.965881 
	C5.605438,207.914398 6.322093,203.872208 7.105115,199.423111 
	C12.753720,199.347519 18.335958,199.678818 24.373993,200.012375 
	C23.886868,203.750305 22.943947,207.485977 21.916027,211.615952 
z"/>
<path fill="#3A89D2" opacity="1.000000" stroke="none" 
	d="
M34.997513,167.661758 
	C29.248083,167.660767 23.662550,167.328842 17.621529,166.995361 
	C18.530571,163.430786 19.895102,159.867783 22.048164,156.140518 
	C28.521502,156.101990 34.206306,156.227707 39.891109,156.353424 
	C38.314545,160.012558 36.737976,163.671692 34.997513,167.661758 
z"/>
<path fill="#3A98D2" opacity="1.000000" stroke="none" 
	d="
M40.163445,156.172668 
	C34.206306,156.227707 28.521502,156.101990 22.360222,155.967880 
	C23.342184,152.405029 24.800623,148.850586 26.569836,145.128876 
	C32.642147,145.316986 38.403687,145.672333 44.639870,146.036865 
	C43.554935,149.361359 41.995358,152.676636 40.163445,156.172668 
z"/>
<path fill="#8246B7" opacity="1.000000" stroke="none" 
	d="
M237.129120,495.463226 
	C238.536865,495.189697 240.072586,495.212524 241.823151,495.555023 
	C240.368073,499.004059 238.806946,497.615356 237.129120,495.463226 
z"/>
<path fill="#000000" opacity="1.000000" stroke="none" 
	d="
M433.900818,442.424286 
	C444.270203,431.046722 454.502869,419.973755 464.925568,408.695190 
	C469.208374,416.395355 473.739380,424.541809 478.573334,432.863739 
	C483.612457,444.420319 488.392334,455.783600 493.047211,467.197876 
	C493.957611,469.430237 494.383240,471.860352 495.099670,474.597168 
	C495.399261,479.398651 496.520020,483.982605 495.670563,488.166534 
	C494.121735,495.795471 487.091949,496.907227 478.422638,495.654968 
	C463.918091,493.559784 450.827545,487.392883 437.476135,480.986511 
	C427.494293,475.536194 417.874481,470.114716 408.084229,464.597137 
	C416.799316,457.175629 425.281708,449.952240 433.900818,442.424286 
z"/>
<path fill="#3AA4D2" opacity="1.000000" stroke="none" 
	d="
M401.037170,139.368195 
	C428.211334,138.963760 455.534973,138.881912 483.384277,138.744843 
	C485.273163,141.208466 486.636383,143.727310 487.582764,146.611542 
	C481.428741,147.354019 475.691589,147.731125 469.954407,148.108215 
	C469.159576,146.933731 468.364746,145.759247 467.494904,144.473892 
	C444.725494,153.139084 422.541931,152.071793 401.037170,139.368195 
z"/>
<path fill="#3C66D2" opacity="1.000000" stroke="none" 
	d="
M488.886261,198.040039 
	C486.942291,192.278259 484.998352,186.516464 483.568420,180.376038 
	C489.758911,179.984741 495.435425,179.972076 501.111938,179.959412 
	C502.749329,185.686371 504.386719,191.413345 505.594360,197.557968 
	C499.738525,197.997086 494.312408,198.018555 488.886261,198.040039 
z"/>
<path fill="#3A78D2" opacity="1.000000" stroke="none" 
	d="
M501.060974,179.568298 
	C495.435425,179.972076 489.758911,179.984741 483.625061,179.996613 
	C481.777863,176.263916 480.388031,172.532028 479.415283,168.412323 
	C485.499542,167.681580 491.166748,167.338654 496.833923,166.995728 
	C498.225952,171.056213 499.617950,175.116699 501.060974,179.568298 
z"/>
<path fill="#3A89D2" opacity="1.000000" stroke="none" 
	d="
M496.775391,166.635559 
	C491.166748,167.338654 485.499542,167.681580 479.358337,168.033173 
	C477.343231,164.600510 475.802155,161.159195 474.670715,157.356506 
	C480.757538,156.648788 486.434723,156.302444 492.111908,155.956085 
	C493.646912,159.395859 495.181915,162.835632 496.775391,166.635559 
z"/>
<path fill="#5176D7" opacity="1.000000" stroke="none" 
	d="
M493.623779,219.006805 
	C492.455902,215.615128 491.745331,212.221497 491.557220,208.415146 
	C497.656525,208.011703 503.233398,208.020966 508.810242,208.030243 
	C509.215912,211.385544 509.621552,214.740845 510.070129,218.524200 
	C504.769043,218.969788 499.425049,218.987335 493.623779,219.006805 
z"/>
<path fill="#3A98D2" opacity="1.000000" stroke="none" 
	d="
M492.053009,155.586121 
	C486.434723,156.302444 480.757538,156.648788 474.623535,156.993774 
	C472.780670,154.271622 471.394623,151.550812 469.981506,148.469116 
	C475.691589,147.731125 481.428741,147.354019 487.641052,146.969269 
	C489.408783,149.713135 490.701447,152.464645 492.053009,155.586121 
z"/>
<path fill="#466BD4" opacity="1.000000" stroke="none" 
	d="
M508.744507,207.652252 
	C503.233398,208.020966 497.656525,208.011703 491.622559,208.003967 
	C490.438385,204.955154 489.711365,201.904800 488.935303,198.447235 
	C494.312408,198.018555 499.738525,197.997086 505.639740,197.967285 
	C506.969452,201.064072 507.824127,204.169174 508.744507,207.652252 
z"/>
<path fill="#8349C8" opacity="1.000000" stroke="none" 
	d="
M97.188316,385.397339 
	C89.766777,383.931244 82.329727,381.247681 74.928062,381.342010 
	C67.551788,381.435974 60.211018,384.316193 52.480934,386.013916 
	C47.054375,385.702026 42.001999,385.344421 36.948586,385.002167 
	C33.192394,384.747772 29.434860,384.513275 25.285519,384.109375 
	C24.963234,383.801605 25.001522,383.624268 25.108192,383.511688 
	C27.014938,381.499481 30.241985,379.643341 30.489866,377.449158 
	C30.760843,375.050629 28.277994,372.340973 27.413357,369.394775 
	C33.590702,368.666473 39.350105,368.310272 45.109512,367.954102 
	C46.426956,368.283203 47.974712,369.237762 49.028130,368.849854 
	C74.704979,359.394623 98.423248,363.150726 120.411293,379.124054 
	C121.859772,380.176300 123.311081,381.224640 124.601112,382.823364 
	C121.748825,383.914215 119.074165,384.787720 116.360649,384.932373 
	C109.979736,385.272461 103.580276,385.264496 97.188316,385.397339 
z"/>
<path fill="#7868D1" opacity="1.000000" stroke="none" 
	d="
M21.389992,298.001526 
	C23.698755,306.283539 25.555590,314.564606 27.398104,322.848877 
	C27.640951,323.940765 27.810688,325.048950 27.590252,326.562714 
	C21.499821,326.981445 15.833426,326.987030 10.167030,326.992584 
	C8.119975,317.932465 6.072919,308.872375 4.095636,299.404236 
	C9.754805,298.664642 15.344201,298.333099 21.389992,298.001526 
z"/>
<path fill="#7C5CCD" opacity="1.000000" stroke="none" 
	d="
M10.221391,327.362000 
	C15.833426,326.987030 21.499821,326.981445 27.641218,326.968323 
	C31.075342,334.709595 34.034466,342.458466 36.637642,350.507690 
	C30.484293,350.886627 24.686890,350.965240 18.889488,351.043823 
	C16.018242,343.273010 13.146996,335.502228 10.221391,327.362000 
z"/>
<path fill="#8051CA" opacity="1.000000" stroke="none" 
	d="
M18.934887,351.425964 
	C24.686890,350.965240 30.484293,350.886627 36.698051,350.883911 
	C39.742298,356.381287 42.370190,361.802795 45.053795,367.589203 
	C39.350105,368.310272 33.590702,368.666473 27.356186,369.030518 
	C24.247478,363.294983 21.613882,357.551544 18.934887,351.425964 
z"/>
<path fill="#8640C3" opacity="1.000000" stroke="none" 
	d="
M380.128876,392.057831 
	C362.157928,410.349396 341.077850,423.214752 315.642273,427.896454 
	C306.325134,429.611328 296.765472,430.803925 287.314117,430.819366 
	C270.481110,430.846771 254.340485,426.733612 238.913559,419.971680 
	C223.213684,413.090149 209.896286,402.879578 198.104172,390.574402 
	C196.985245,389.406799 196.140518,387.976410 195.500244,386.346222 
	C202.928909,385.670197 210.025803,385.315948 217.427917,385.099304 
	C221.988953,388.543854 226.050156,392.145020 230.532257,395.109894 
	C259.124146,414.023041 289.846436,417.933502 322.604553,408.184479 
	C334.857910,404.537781 345.377869,397.836090 356.355713,390.966980 
	C364.597504,391.336182 372.363190,391.696991 380.128876,392.057831 
z"/>
<path fill="#717AD6" opacity="1.000000" stroke="none" 
	d="
M131.891556,285.046570 
	C126.002098,279.588226 120.112633,274.129852 114.603302,268.294647 
	C122.029434,267.599487 129.075439,267.281158 136.431763,267.100006 
	C148.755447,277.345581 162.426056,282.226379 178.275131,281.056702 
	C193.832962,279.908630 206.557526,273.359619 217.348511,262.197113 
	C224.175644,262.950409 230.646927,263.493835 237.060211,264.389191 
	C235.994766,266.204193 235.193146,267.879028 233.943939,269.093384 
	C228.739639,274.152466 223.400635,279.072968 217.635498,284.035217 
	C191.017609,284.017548 164.875214,283.983002 138.733047,284.045959 
	C136.451767,284.051453 134.172028,284.697876 131.891556,285.046570 
z"/>
<path fill="#7373D4" opacity="1.000000" stroke="none" 
	d="
M132.040131,285.366577 
	C134.172028,284.697876 136.451767,284.051453 138.733047,284.045959 
	C164.875214,283.983002 191.017609,284.017548 217.488693,284.352661 
	C208.340805,292.275696 197.081436,295.517334 185.508926,298.100739 
	C184.454376,298.336182 183.718246,299.997986 182.377365,300.998291 
	C176.668823,300.998413 171.417160,300.997650 166.165497,300.996918 
	C165.275513,299.997620 164.509811,298.288910 163.476456,298.107849 
	C152.168137,296.126404 141.681458,292.188080 132.040131,285.366577 
z"/>
<path fill="#8641C4" opacity="1.000000" stroke="none" 
	d="
M97.467949,385.649231 
	C103.580276,385.264496 109.979736,385.272461 116.360649,384.932373 
	C119.074165,384.787720 121.748825,383.914215 124.747147,383.134460 
	C137.158295,393.747009 145.157135,406.942413 148.027466,423.486786 
	C144.480911,424.264526 140.908356,424.610138 137.342850,425.017670 
	C135.541183,425.223572 133.752304,425.541473 131.561996,425.902222 
	C128.363342,414.471436 123.017723,404.289337 113.922058,396.617676 
	C109.011192,392.475647 103.169388,389.437317 97.467949,385.649231 
z"/>
<path fill="#7C5CCD" opacity="1.000000" stroke="none" 
	d="
M426.110748,324.954773 
	C431.740814,332.055450 437.370850,339.156158 442.583984,346.616821 
	C435.740021,347.332550 429.312988,347.688263 422.885925,348.044006 
	C419.119507,343.451538 415.353088,338.859070 411.448456,334.098083 
	C410.556183,337.052551 409.773590,339.643921 408.454926,342.617554 
	C402.238861,342.987305 396.558838,342.974792 390.931519,342.562317 
	C392.378326,336.772888 393.772461,331.383392 395.624786,325.994934 
	C399.875977,325.996918 403.673828,326.120514 407.460846,325.971039 
	C413.681183,325.725464 419.894470,325.302795 426.110748,324.954773 
z"/>
<path fill="#3A82D2" opacity="1.000000" stroke="none" 
	d="
M215.046661,161.889481 
	C218.305069,164.373062 221.563461,166.856644 224.573029,169.806442 
	C219.578644,170.515106 214.828217,170.688004 210.089157,171.022263 
	C206.373093,171.284348 202.671112,171.746078 198.587967,172.056747 
	C187.137466,167.061829 175.619125,165.388535 163.744232,168.036392 
	C158.079468,169.299515 152.600601,171.396408 146.687927,172.887421 
	C144.234467,172.438690 142.135254,172.145569 140.025925,172.011505 
	C133.980637,171.627319 127.931236,171.307648 121.883453,170.962616 
	C125.342041,168.054932 128.800629,165.147278 132.980713,162.188995 
	C135.996063,162.425125 138.289261,162.954865 140.583878,162.961075 
	C163.490479,163.023148 186.397415,163.025330 209.303940,162.950989 
	C211.219299,162.944778 213.132477,162.259338 215.046661,161.889481 
z"/>
<path fill="#3A8DD2" opacity="1.000000" stroke="none" 
	d="
M214.903198,161.580750 
	C213.132477,162.259338 211.219299,162.944778 209.303940,162.950989 
	C186.397415,163.025330 163.490479,163.023148 140.583878,162.961075 
	C138.289261,162.954865 135.996063,162.425125 133.285797,162.045273 
	C138.308243,159.294205 143.747101,156.636215 149.754639,154.279587 
	C152.337540,155.053253 154.349319,155.922775 156.366455,155.935440 
	C173.521088,156.042969 190.676712,155.994675 207.832031,155.993073 
	C210.141266,157.752716 212.450516,159.512360 214.903198,161.580750 
z"/>
<path fill="#6A8ADB" opacity="1.000000" stroke="none" 
	d="
M34.166199,256.993683 
	C34.454266,248.290344 34.742329,239.587006 35.554222,230.444855 
	C41.425541,230.350876 46.773041,230.695740 52.120537,231.040604 
	C51.737152,239.383286 51.353767,247.725983 50.445450,256.532532 
	C44.669075,256.995483 39.417637,256.994568 34.166199,256.993683 
z"/>
<path fill="#8349C8" opacity="1.000000" stroke="none" 
	d="
M217.122711,384.961731 
	C210.025803,385.315948 202.928909,385.670197 195.355881,386.032776 
	C190.332825,379.609314 185.785904,373.177521 181.444199,366.201355 
	C187.806503,365.425598 193.963562,365.194275 200.431488,365.105225 
	C206.202454,371.818970 211.662582,378.390350 217.122711,384.961731 
z"/>
<path fill="#8051CA" opacity="1.000000" stroke="none" 
	d="
M423.031250,348.360779 
	C429.312988,347.688263 435.740021,347.332550 442.642548,346.968994 
	C448.045471,353.448822 452.972961,359.936493 458.056610,366.731140 
	C451.753601,367.366638 445.294373,367.695190 438.358887,368.031830 
	C432.980591,361.585785 428.078583,355.131653 423.031250,348.360779 
z"/>
<path fill="#7F54CB" opacity="1.000000" stroke="none" 
	d="
M200.120636,364.962921 
	C193.963562,365.194275 187.806503,365.425598 181.297195,365.882812 
	C177.645355,358.326782 174.345749,350.544891 171.563141,342.381317 
	C177.664597,341.999786 183.249039,341.999969 188.998291,342.328461 
	C192.815613,350.092163 196.468124,357.527527 200.120636,364.962921 
z"/>
<path fill="#6F7ED7" opacity="1.000000" stroke="none" 
	d="
M34.093498,257.457733 
	C39.417637,256.994568 44.669075,256.995483 50.377220,256.995026 
	C51.221043,263.901581 51.783028,270.807831 51.848904,277.718811 
	C51.862206,279.114349 50.182819,281.526398 48.964596,281.752930 
	C44.642151,282.556641 40.181561,282.617432 34.460567,283.061584 
	C34.311943,274.565216 34.166370,266.243500 34.093498,257.457733 
z"/>
<path fill="#3A98D2" opacity="1.000000" stroke="none" 
	d="
M207.899750,155.567749 
	C190.676712,155.994675 173.521088,156.042969 156.366455,155.935440 
	C154.349319,155.922775 152.337540,155.053253 150.140717,154.232300 
	C155.397888,152.589371 160.782532,150.603653 166.290405,150.164825 
	C174.309616,149.525909 182.417557,150.000809 190.827103,150.000809 
	C190.904388,149.266754 191.055573,147.830750 191.543854,146.179794 
	C197.226837,145.975082 202.572723,145.985336 208.375824,145.994080 
	C208.544495,149.042526 208.255981,152.092468 207.899750,155.567749 
z"/>
<path fill="#7B5ECE" opacity="1.000000" stroke="none" 
	d="
M188.833496,342.000153 
	C183.249039,341.999969 177.664597,341.999786 171.623032,341.999207 
	C169.769333,335.304779 168.372742,328.610748 167.344376,321.388550 
	C173.086472,320.573639 178.460327,320.286896 183.906693,320.410828 
	C185.597305,327.881104 187.215393,334.940613 188.833496,342.000153 
z"/>
<path fill="#6A8ADB" opacity="1.000000" stroke="none" 
	d="
M105.889664,253.046280 
	C103.936317,246.307541 101.982964,239.568787 100.554420,232.416687 
	C106.664650,232.003967 112.250076,232.004593 117.904381,232.419006 
	C120.023094,239.209778 122.072937,245.586777 123.647675,251.971191 
	C117.411598,252.334488 111.650627,252.690384 105.889664,253.046280 
z"/>
<path fill="#8544C7" opacity="1.000000" stroke="none" 
	d="
M380.429596,391.898804 
	C372.363190,391.696991 364.597504,391.336182 356.504456,390.656891 
	C361.412170,385.212860 366.647186,380.087311 372.297852,375.052551 
	C379.419708,375.427917 386.125854,375.712494 392.832031,375.997070 
	C388.798126,381.244629 384.764221,386.492218 380.429596,391.898804 
z"/>
<path fill="#824DC9" opacity="1.000000" stroke="none" 
	d="
M392.989563,375.680969 
	C386.125854,375.712494 379.419708,375.427917 372.445343,374.742157 
	C376.077209,368.881287 379.977264,363.421570 384.293060,358.052734 
	C390.750793,358.428986 396.792786,358.714355 402.834778,358.999695 
	C399.605530,364.454742 396.376312,369.909821 392.989563,375.680969 
z"/>
<path fill="#3C66D2" opacity="1.000000" stroke="none" 
	d="
M65.834488,178.999435 
	C63.806145,185.214844 61.777805,191.430237 58.957092,197.834641 
	C52.736649,198.002594 47.308571,197.981552 41.880497,197.960510 
	C43.670063,191.758850 45.459629,185.557175 48.041618,179.166809 
	C54.500858,178.985199 60.167671,178.992310 65.834488,178.999435 
z"/>
<path fill="#776BD2" opacity="1.000000" stroke="none" 
	d="
M57.939194,309.061707 
	C60.093929,313.778320 57.348366,315.069580 53.951389,315.941254 
	C50.196140,316.904907 46.436989,317.853333 42.259438,318.915161 
	C40.698551,312.556763 39.132339,306.176666 37.485031,299.466217 
	C43.552631,298.306213 48.927811,297.278595 54.418228,296.228912 
	C55.558022,300.301697 56.726768,304.477936 57.939194,309.061707 
z"/>
<path fill="#7868D1" opacity="1.000000" stroke="none" 
	d="
M183.834198,320.000122 
	C178.460327,320.286896 173.086472,320.573639 167.297867,320.951843 
	C166.596344,314.670349 166.309570,308.297363 166.094147,301.460632 
	C171.417160,300.997650 176.668823,300.998413 182.448746,301.458984 
	C183.262726,307.945923 183.548462,313.973022 183.834198,320.000122 
z"/>
<path fill="#3C66D2" opacity="1.000000" stroke="none" 
	d="
M104.158310,198.010635 
	C106.868401,192.771118 109.578499,187.531616 113.067200,182.132233 
	C120.576530,182.351944 127.307259,182.731522 133.901764,183.416382 
	C130.216309,188.493393 126.667084,193.265137 122.642365,198.029419 
	C116.164017,198.018204 110.161163,198.014420 104.158310,198.010635 
z"/>
<path fill="#6E82D8" opacity="1.000000" stroke="none" 
	d="
M105.934830,253.422546 
	C111.650627,252.690384 117.411598,252.334488 123.952820,252.129608 
	C128.529190,257.174683 132.325317,262.068787 136.121429,266.962860 
	C129.075439,267.281158 122.029434,267.599487 114.575119,267.957825 
	C111.437859,263.264832 108.708923,258.531799 105.934830,253.422546 
z"/>
<path fill="#7F54CB" opacity="1.000000" stroke="none" 
	d="
M402.911713,358.628235 
	C396.792786,358.714355 390.750793,358.428986 384.352844,357.687622 
	C386.290863,352.475159 388.584839,347.718689 390.878815,342.962250 
	C396.558838,342.974792 402.238861,342.987305 408.376343,342.999512 
	C406.885437,348.085052 404.937042,353.170898 402.911713,358.628235 
z"/>
<path fill="#3A78D2" opacity="1.000000" stroke="none" 
	d="
M65.995399,178.671463 
	C60.167671,178.992310 54.500858,178.985199 48.358822,178.969849 
	C49.589722,174.553757 51.295837,170.145935 53.539017,165.371063 
	C60.009995,165.132095 65.943909,165.260162 71.877823,165.388214 
	C69.970650,169.706635 68.063484,174.025070 65.995399,178.671463 
z"/>
<path fill="#3A76D2" opacity="1.000000" stroke="none" 
	d="
M134.037979,183.111099 
	C127.307259,182.731522 120.576530,182.351944 113.370972,181.964584 
	C115.688370,178.382477 118.480614,174.808151 121.578156,171.098221 
	C127.931236,171.307648 133.980637,171.627319 140.025925,172.011505 
	C142.135254,172.145569 144.234467,172.438690 146.545349,173.199005 
	C142.514252,176.862915 138.276108,179.987000 134.037979,183.111099 
z"/>
<path fill="#3AA4D2" opacity="1.000000" stroke="none" 
	d="
M59.150108,152.978394 
	C61.974236,148.257874 64.693848,143.468353 67.721741,138.882370 
	C68.248016,138.085297 70.339752,137.539429 71.250671,137.934082 
	C73.460136,138.891312 75.405426,140.462616 77.447365,141.801422 
	C84.056099,146.134491 84.054398,146.137085 78.528252,152.666061 
	C71.660004,152.983109 65.405052,152.980759 59.150108,152.978394 
z"/>
<path fill="#3A8DD2" opacity="1.000000" stroke="none" 
	d="
M58.998444,153.306992 
	C65.405052,152.980759 71.660004,152.983109 78.372429,152.982758 
	C76.688690,156.991501 74.547470,161.002930 72.142036,165.201294 
	C65.943909,165.260162 60.009995,165.132095 53.617397,165.004761 
	C55.054733,161.215500 56.950752,157.425537 58.998444,153.306992 
z"/>
<path fill="#567BD8" opacity="1.000000" stroke="none" 
	d="
M100.169014,222.009628 
	C100.458366,217.959015 100.747719,213.908386 101.559975,209.434113 
	C107.665695,209.011551 113.248520,209.012619 118.879761,209.419144 
	C118.229103,213.886276 117.530022,217.947983 116.374275,222.008331 
	C110.668076,222.007874 105.418541,222.008759 100.169014,222.009628 
z"/>
<path fill="#5176D7" opacity="1.000000" stroke="none" 
	d="
M36.898132,219.955475 
	C37.600796,216.237366 38.303455,212.519272 39.542572,208.402039 
	C45.664352,208.004272 51.249676,208.005646 56.834995,208.007004 
	C55.957829,211.769516 55.080662,215.532028 53.562431,219.647964 
	C47.580288,219.986084 42.239208,219.970779 36.898132,219.955475 
z"/>
<path fill="#466BD4" opacity="1.000000" stroke="none" 
	d="
M118.831345,209.013702 
	C113.248520,209.012619 107.665695,209.011551 101.625992,209.012970 
	C102.115646,205.601486 103.062195,202.187515 104.083527,198.392090 
	C110.161163,198.014420 116.164017,198.018204 122.580841,198.400497 
	C121.606995,202.190582 120.219170,205.602142 118.831345,209.013702 
z"/>
<path fill="#466BD4" opacity="1.000000" stroke="none" 
	d="
M56.908318,207.614655 
	C51.249676,208.005646 45.664352,208.004272 39.621826,208.004700 
	C39.858124,204.794418 40.551628,201.582367 41.562813,198.165405 
	C47.308571,197.981552 52.736649,198.002594 58.639893,198.031723 
	C58.403923,201.100647 57.692780,204.161469 56.908318,207.614655 
z"/>
<path fill="#5D82DA" opacity="1.000000" stroke="none" 
	d="
M36.562607,220.184586 
	C42.239208,219.970779 47.580288,219.986084 53.378716,220.003143 
	C53.491718,223.537186 53.147366,227.069473 52.461777,230.821167 
	C46.773041,230.695740 41.425541,230.350876 35.622063,230.008118 
	C35.519749,226.811371 35.873413,223.612534 36.562607,220.184586 
z"/>
<path fill="#6086DA" opacity="1.000000" stroke="none" 
	d="
M100.101845,222.459167 
	C105.418541,222.008759 110.668076,222.007874 116.441223,222.443207 
	C117.255066,225.921341 117.545288,228.963272 117.835503,232.005219 
	C112.250076,232.004593 106.664650,232.003967 100.622009,232.004700 
	C100.121414,228.973602 100.078049,225.941147 100.101845,222.459167 
z"/>
<path fill="#7375D5" opacity="1.000000" stroke="none" 
	d="
M408.834412,271.995026 
	C410.221954,277.624023 411.780121,283.218384 412.932281,288.895172 
	C413.610596,292.237335 413.644531,295.710236 413.442749,299.560333 
	C407.476257,299.997528 402.030579,299.860687 396.595917,300.046539 
	C392.709534,300.179474 388.837952,300.745087 384.649719,300.972168 
	C378.187439,293.564758 372.035187,286.302826 366.333679,279.032684 
	C373.561066,278.668976 380.337646,278.313477 387.421143,278.091339 
	C389.659332,280.346802 391.590668,282.468903 393.522003,284.590973 
	C393.837219,284.470123 394.152435,284.349274 394.467651,284.228424 
	C393.362793,280.478149 392.257904,276.727875 391.550598,272.887787 
	C397.576904,272.530304 403.205658,272.262665 408.834412,271.995026 
z"/>
<path fill="#3C66D2" opacity="1.000000" stroke="none" 
	d="
M288.886230,199.044373 
	C283.330444,193.598938 277.774689,188.153488 272.436646,182.179474 
	C275.087860,181.433533 277.519531,181.192581 279.955231,181.003799 
	C284.671356,180.638306 289.389801,180.302200 294.107269,179.953918 
	C298.607697,184.963684 303.108093,189.973480 308.738953,196.241638 
	C312.444031,189.893448 315.144867,185.265900 318.385559,180.317352 
	C324.638275,180.333023 330.351135,180.669724 336.064026,181.006409 
	C335.117523,183.740982 334.171021,186.475555 333.133514,189.473038 
	C337.377258,191.496918 341.721924,193.568939 345.938324,196.223694 
	C343.736725,197.203949 341.665710,197.931412 339.589722,197.945908 
	C325.131683,198.046768 310.672272,197.951599 296.214142,198.047073 
	C293.769409,198.063217 291.328766,198.696320 288.886230,199.044373 
z"/>
<path fill="#7868D1" opacity="1.000000" stroke="none" 
	d="
M384.959747,301.117645 
	C388.837952,300.745087 392.709534,300.179474 396.595917,300.046539 
	C402.030579,299.860687 407.476257,299.997528 413.375244,299.995056 
	C411.850464,309.717773 419.156921,315.043365 424.023987,321.525574 
	C424.698059,322.423340 425.341217,323.344269 426.054718,324.604614 
	C419.894470,325.302795 413.681183,325.725464 407.460846,325.971039 
	C403.673828,326.120514 399.875977,325.996918 395.558960,325.576294 
	C394.847931,321.093781 395.768860,316.523560 394.198425,313.094238 
	C392.153320,308.628326 388.131134,305.067810 384.959747,301.117645 
z"/>
<path fill="#466BD4" opacity="1.000000" stroke="none" 
	d="
M289.028809,199.348129 
	C291.328766,198.696320 293.769409,198.063217 296.214142,198.047073 
	C310.672272,197.951599 325.131683,198.046768 339.589722,197.945908 
	C341.665710,197.931412 343.736725,197.203949 346.149902,196.485626 
	C351.247589,198.865311 356.005493,201.565781 360.554688,204.806030 
	C352.897034,205.564850 345.441254,205.661682 338.003418,206.078751 
	C335.822449,206.201050 333.692505,207.232834 331.146149,207.874207 
	C327.770355,207.696106 325.161804,203.752914 321.374573,207.006287 
	C312.573608,206.987976 304.230865,206.971115 295.888092,206.954269 
	C293.649200,204.520142 291.410309,202.086014 289.028809,199.348129 
z"/>
<path fill="#6D83D9" opacity="1.000000" stroke="none" 
	d="
M408.900818,271.603149 
	C403.205658,272.262665 397.576904,272.530304 391.480042,272.511780 
	C387.300049,264.163849 383.588196,256.102112 380.352356,248.032272 
	C386.925079,248.001556 393.021790,247.978943 399.118469,247.956314 
	C402.401398,255.707977 405.684326,263.459656 408.900818,271.603149 
z"/>
<path fill="#678ADB" opacity="1.000000" stroke="none" 
	d="
M399.061646,247.594864 
	C393.021790,247.978943 386.925079,248.001556 380.043335,247.893829 
	C373.798584,241.187622 368.338898,234.611740 363.279205,228.020706 
	C370.823700,227.654755 377.968231,227.303940 385.112732,226.953140 
	C389.743408,233.713226 394.374115,240.473312 399.061646,247.594864 
z"/>
<path fill="#4F74D6" opacity="1.000000" stroke="none" 
	d="
M331.539154,207.847778 
	C333.692505,207.232834 335.822449,206.201050 338.003418,206.078751 
	C345.441254,205.661682 352.897034,205.564850 360.698059,205.120056 
	C365.145844,207.957535 369.241516,211.020721 373.159119,214.520569 
	C368.547150,215.304810 364.110229,215.617828 359.680420,216.010880 
	C356.101471,216.328445 352.531036,216.742477 348.597046,217.061508 
	C342.671234,213.955460 337.105194,210.901611 331.539154,207.847778 
z"/>
<path fill="#776BD2" opacity="1.000000" stroke="none" 
	d="
M459.022278,299.013550 
	C464.643127,299.391418 470.163025,300.170959 476.255432,301.031372 
	C474.653351,307.291565 473.186646,313.022766 471.655884,319.004272 
	C466.797943,317.624695 462.126068,316.423767 457.563690,314.895966 
	C456.653046,314.591034 455.430206,312.885590 455.596985,312.085663 
	C456.487000,307.816711 457.772583,303.630249 459.022278,299.013550 
z"/>
<path fill="#597FD9" opacity="1.000000" stroke="none" 
	d="
M348.956848,217.113708 
	C352.531036,216.742477 356.101471,216.328445 359.680420,216.010880 
	C364.110229,215.617828 368.547150,215.304810 373.420776,214.767807 
	C377.518951,218.495239 381.177368,222.412064 384.974243,226.641022 
	C377.968231,227.303940 370.823700,227.654755 362.968506,227.886749 
	C357.824127,224.216522 353.390503,220.665115 348.956848,217.113708 
z"/>
<path fill="#4F74D6" opacity="1.000000" stroke="none" 
	d="
M457.490143,203.258392 
	C462.718872,201.863022 467.584473,200.642853 472.782349,199.339371 
	C474.153534,204.927429 475.537476,210.567474 476.989380,216.484467 
	C472.072052,217.634048 467.260803,218.881561 462.386719,219.792801 
	C461.433502,219.970993 459.485291,219.051697 459.275696,218.287598 
	C458.039490,213.780716 457.159515,209.174454 456.244965,204.584671 
	C456.182648,204.271988 456.816803,203.820526 457.490143,203.258392 
z"/>
<path fill="#717AD6" opacity="1.000000" stroke="none" 
	d="
M464.671509,283.841034 
	C462.944794,282.942719 461.205933,283.050659 461.824554,280.228485 
	C462.747162,276.019318 462.557556,271.566315 462.842133,267.201904 
	C468.931030,267.201904 474.205566,267.201904 480.235535,267.201904 
	C479.755066,273.117249 479.295746,278.772339 478.785156,285.058411 
	C474.102997,284.681152 469.590576,284.317566 464.671509,283.841034 
z"/>
<path fill="#6A8ADB" opacity="1.000000" stroke="none" 
	d="
M463.001495,247.041962 
	C462.572418,243.030838 462.143921,239.479599 461.619934,235.137024 
	C467.466339,234.340118 472.946045,233.593185 479.286133,232.728973 
	C479.625031,238.980957 479.931244,244.630325 480.275726,250.985718 
	C474.884033,250.985718 469.981934,251.136749 465.108673,250.829910 
	C464.339691,250.781479 463.701019,248.663132 463.001495,247.041962 
z"/>
<path fill="#3A8DD2" opacity="1.000000" stroke="none" 
	d="
M322.088837,149.438736 
	C327.415863,149.001740 332.669678,149.002792 338.380371,149.002502 
	C339.213470,154.026001 339.589600,159.050873 339.443268,164.538239 
	C333.335114,164.999878 327.749420,164.999023 322.163757,164.998184 
	C322.114349,159.957718 322.064972,154.917236 322.088837,149.438736 
z"/>
<path fill="#3A78D2" opacity="1.000000" stroke="none" 
	d="
M322.091705,165.405945 
	C327.749420,164.999023 333.335114,164.999878 339.377991,164.999756 
	C338.786865,170.184158 337.738556,175.369568 336.377136,180.780685 
	C330.351135,180.669724 324.638275,180.333023 318.546875,179.994965 
	C319.452148,175.266937 320.735901,170.540314 322.091705,165.405945 
z"/>
<path fill="#3AB8D2" opacity="1.000000" stroke="none" 
	d="
M454.721375,130.141357 
	C454.765015,130.378555 454.526611,130.566330 454.073608,130.847229 
	C454.071747,130.682007 454.265167,130.399200 454.721375,130.141357 
z"/>
<path fill="#3AB8D2" opacity="1.000000" stroke="none" 
	d="
M423.024506,130.716690 
	C422.853851,130.814651 422.602936,130.649460 422.195831,130.315704 
	C422.328644,130.268311 422.630157,130.370453 423.024506,130.716690 
z"/>
<path fill="#3A89D2" opacity="1.000000" stroke="none" 
	d="
M257.893799,169.049835 
	C253.650085,165.253235 249.406357,161.456619 245.439148,157.259323 
	C249.789917,156.572815 253.868759,156.339340 257.937073,155.984985 
	C261.312469,155.690994 264.675446,155.254623 268.386414,155.052551 
	C271.889282,158.590103 275.426605,156.742004 279.331543,155.967102 
	C285.556122,156.331055 291.336182,156.685867 297.116241,157.040680 
	C296.667236,162.863083 292.364838,166.122330 288.054810,169.523987 
	C277.605499,169.201096 267.749664,169.125458 257.893799,169.049835 
z"/>
<path fill="#3AB0D2" opacity="1.000000" stroke="none" 
	d="
M294.060394,135.606995 
	C291.506622,136.304123 288.892792,136.976898 286.287689,136.944778 
	C275.175110,136.807877 264.065125,136.462616 252.557190,136.100891 
	C262.673187,120.319725 284.363831,120.502548 294.060394,135.606995 
z"/>
<path fill="#3A76D2" opacity="1.000000" stroke="none" 
	d="
M258.032104,169.357178 
	C267.749664,169.125458 277.605499,169.201096 287.720673,169.554840 
	C287.841003,170.902237 287.185669,172.393616 287.653961,172.966492 
	C289.519287,175.248337 291.734772,177.243958 293.963928,179.649750 
	C289.389801,180.302200 284.671356,180.638306 279.955231,181.003799 
	C277.519531,181.192581 275.087860,181.433533 272.301941,181.875885 
	C267.356445,177.955399 262.763397,173.809967 258.032104,169.357178 
z"/>
<path fill="#3A98D2" opacity="1.000000" stroke="none" 
	d="
M297.445251,156.827057 
	C291.336182,156.685867 285.556122,156.331055 279.396484,155.721069 
	C279.071320,155.305191 279.125702,155.144485 279.330109,154.818024 
	C279.674103,154.423233 279.832703,154.171860 280.125793,153.548798 
	C280.518829,151.171371 280.742004,149.143280 280.965149,147.115204 
	C286.283203,146.742111 291.601257,146.369034 297.375977,145.994614 
	C297.813202,149.533325 297.793762,153.073380 297.445251,156.827057 
z"/>
<path fill="#587DD8" opacity="1.000000" stroke="none" 
	d="
M248.044952,212.890335 
	C256.705383,213.589554 265.365814,214.288788 274.841064,215.166412 
	C277.276093,215.563004 278.895966,215.967453 280.516602,215.970673 
	C297.049652,216.003540 313.582855,215.971115 330.410248,216.085541 
	C332.151459,217.773666 333.598419,219.333206 334.693970,221.118866 
	C326.856506,221.582321 319.370483,221.819626 311.570190,221.907837 
	C310.585907,220.868195 309.915894,219.977631 309.299591,219.158508 
	C305.219910,221.128098 301.167877,223.084335 296.700195,224.948944 
	C293.659790,224.571640 291.035919,224.048126 288.410156,224.038376 
	C269.662476,223.968719 250.914413,224.003815 232.092682,223.591431 
	C231.734970,220.120346 231.451065,217.063400 231.623993,214.005081 
	C237.402206,213.632568 242.723587,213.261444 248.044952,212.890335 
z"/>
<path fill="#3C66D2" opacity="1.000000" stroke="none" 
	d="
M234.113419,179.960022 
	C237.750153,186.702911 241.386871,193.445801 244.587189,200.580902 
	C238.489716,200.984787 232.828674,200.996475 227.007172,200.688354 
	C221.853348,193.926605 216.859970,187.484680 212.343231,181.033936 
	C219.917709,180.670074 227.015564,180.315048 234.113419,179.960022 
z"/>
<path fill="#5176D7" opacity="1.000000" stroke="none" 
	d="
M330.115997,215.956955 
	C313.582855,215.971115 297.049652,216.003540 280.516602,215.970673 
	C278.895966,215.967453 277.276093,215.563004 275.304291,215.118622 
	C281.689209,212.268723 288.425720,209.645035 295.525146,206.987793 
	C304.230865,206.971115 312.573608,206.987976 321.522217,207.313126 
	C324.790710,210.399918 327.453339,213.178436 330.115997,215.956955 
z"/>
<path fill="#3A98D2" opacity="1.000000" stroke="none" 
	d="
M268.043945,154.881332 
	C264.675446,155.254623 261.312469,155.690994 257.937073,155.984985 
	C253.868759,156.339340 249.789917,156.572815 245.300079,156.950592 
	C241.329468,153.936615 237.774445,150.830658 234.089386,147.419800 
	C236.875061,146.743073 239.785645,146.107742 242.707489,146.050934 
	C250.190094,145.905441 257.677704,146.017258 265.593689,146.449860 
	C266.697327,149.542801 267.370636,152.212067 268.043945,154.881332 
z"/>
<path fill="#3A76D2" opacity="1.000000" stroke="none" 
	d="
M234.055374,179.611389 
	C227.015564,180.315048 219.917709,180.670074 212.041977,180.888885 
	C207.163681,177.874832 203.063278,174.996979 198.962875,172.119125 
	C202.671112,171.746078 206.373093,171.284348 210.089157,171.022263 
	C214.828217,170.688004 219.578644,170.515106 224.717133,170.113098 
	C228.072510,173.056610 231.034912,176.159683 234.055374,179.611389 
z"/>
<path fill="#4C71D6" opacity="1.000000" stroke="none" 
	d="
M227.167618,201.008179 
	C232.828674,200.996475 238.489716,200.984787 244.624146,200.962692 
	C246.069611,204.660751 247.041687,208.369202 248.029358,212.484009 
	C242.723587,213.261444 237.402206,213.632568 231.445709,213.659912 
	C229.596268,209.213486 228.381943,205.110840 227.167618,201.008179 
z"/>
<path fill="#000000" opacity="1.000000" stroke="none" 
	d="
M268.386414,155.052551 
	C267.370636,152.212067 266.697327,149.542801 266.069458,146.458725 
	C272.729736,140.357147 276.502899,140.548965 280.651123,146.941071 
	C280.742004,149.143280 280.518829,151.171371 279.886047,153.642761 
	C279.377625,154.385315 279.278870,154.684540 279.180084,154.983780 
	C279.125702,155.144485 279.071320,155.305191 278.951965,155.711914 
	C275.426605,156.742004 271.889282,158.590103 268.386414,155.052551 
z"/>
<path fill="#000000" opacity="1.000000" stroke="none" 
	d="
M297.115845,225.040573 
	C301.167877,223.084335 305.219910,221.128098 309.299591,219.158508 
	C309.915894,219.977631 310.585907,220.868195 311.697571,222.208145 
	C313.720734,224.119308 315.302277,225.581070 317.022583,227.347473 
	C319.399017,229.781891 321.636658,231.911682 324.015808,234.348495 
	C332.066223,242.784027 339.975189,250.912552 347.944641,259.287476 
	C348.059937,259.693817 348.114746,259.853821 348.144958,260.273834 
	C348.400940,260.721527 348.681580,260.909271 349.094269,261.401672 
	C354.778564,267.484497 360.330750,273.262695 365.882935,279.040894 
	C372.035187,286.302826 378.187439,293.564758 384.649719,300.972168 
	C388.131134,305.067810 392.153320,308.628326 394.198425,313.094238 
	C395.768860,316.523560 394.847931,321.093781 395.100769,325.575287 
	C393.772461,331.383392 392.378326,336.772888 390.931519,342.562317 
	C388.584839,347.718689 386.290863,352.475159 383.937103,357.596741 
	C379.977264,363.421570 376.077209,368.881287 372.029663,374.651367 
	C366.647186,380.087311 361.412170,385.212860 356.028351,390.648499 
	C345.377869,397.836090 334.857910,404.537781 322.604553,408.184479 
	C289.846436,417.933502 259.124146,414.023041 230.532257,395.109894 
	C226.050156,392.145020 221.988953,388.543854 217.427917,385.099304 
	C211.662582,378.390350 206.202454,371.818970 200.431488,365.105225 
	C196.468124,357.527527 192.815613,350.092163 188.998291,342.328461 
	C187.215393,334.940613 185.597305,327.881104 183.906708,320.410858 
	C183.548462,313.973022 183.262726,307.945923 182.905624,301.458130 
	C183.718246,299.997986 184.454376,298.336182 185.508926,298.100739 
	C197.081436,295.517334 208.340805,292.275696 217.964233,284.361755 
	C223.400635,279.072968 228.739639,274.152466 233.943939,269.093384 
	C235.193146,267.879028 235.994766,266.204193 237.371780,264.240479 
	C243.580353,254.311600 247.578674,244.260864 248.453888,232.846588 
	C249.792114,232.111588 251.001770,230.902161 251.774979,231.135986 
	C259.497284,233.471420 267.347839,233.792175 275.065338,231.896881 
	C282.526764,230.064468 289.774323,227.361267 297.115845,225.040573 
M248.023987,306.839020 
	C249.148773,314.286133 249.453400,321.998901 254.995438,328.757477 
	C256.402924,330.744385 257.614166,332.911957 259.250000,334.688599 
	C269.137207,345.426880 281.702209,349.890625 295.838470,347.789062 
	C308.343048,345.930054 319.092194,340.159882 325.747528,327.741943 
	C330.349060,320.847382 331.888916,313.133911 331.939240,304.184113 
	C331.624634,302.783142 331.464020,301.324982 330.968414,299.991272 
	C328.979553,294.638855 326.886871,289.325012 324.763000,283.321991 
	C324.426941,282.955322 324.036713,282.625000 323.762665,282.216705 
	C314.813690,268.882965 296.906311,262.283630 281.147186,265.825470 
	C269.304169,268.487152 260.632385,275.065399 253.835236,285.660339 
	C250.255646,291.966614 248.104279,298.670990 248.023987,306.839020 
z"/>
<path fill="#000000" opacity="1.000000" stroke="none" 
	d="
M227.007172,200.688354 
	C228.381943,205.110840 229.596268,209.213486 230.988876,213.661316 
	C231.451065,217.063400 231.734970,220.120346 232.024963,224.008026 
	C231.741074,227.560791 231.451080,230.282791 231.091431,233.403687 
	C228.901718,244.469894 224.301376,253.902634 216.992661,261.987274 
	C206.557526,273.359619 193.832962,279.908630 178.275131,281.056702 
	C162.426056,282.226379 148.755447,277.345581 136.431763,267.100006 
	C132.325317,262.068787 128.529190,257.174683 124.427933,252.122192 
	C122.072937,245.586777 120.023094,239.209778 117.904381,232.419006 
	C117.545288,228.963272 117.255066,225.921341 116.897903,222.444534 
	C117.530022,217.947983 118.229103,213.886276 118.879761,209.419144 
	C120.219170,205.602142 121.606995,202.190582 123.056335,198.407928 
	C126.667084,193.265137 130.216309,188.493393 133.901764,183.416382 
	C138.276108,179.987000 142.514252,176.862915 146.894958,173.427231 
	C152.600601,171.396408 158.079468,169.299515 163.744232,168.036392 
	C175.619125,165.388535 187.137466,167.061829 198.587967,172.056747 
	C203.063278,174.996979 207.163681,177.874832 211.565353,180.897705 
	C216.859970,187.484680 221.853348,193.926605 227.007172,200.688354 
M199.976547,224.258911 
	C199.595840,222.839798 199.215134,221.420685 198.972488,219.243790 
	C198.016998,216.812668 197.061508,214.381531 196.005905,211.234741 
	C193.992920,208.980637 192.109299,206.593094 189.944931,204.495148 
	C179.678207,194.543549 157.838028,197.967743 151.246826,213.355652 
	C150.553329,216.572647 149.859833,219.789627 149.032974,223.824753 
	C149.648788,226.562576 150.264618,229.300415 150.986786,232.787842 
	C153.950623,243.060776 163.382904,249.103638 176.057449,249.017380 
	C184.198792,248.961975 196.533279,241.342300 198.173462,231.325272 
	C198.726822,229.218506 199.280182,227.111725 199.976547,224.258911 
z"/>
<path fill="#6B89DA" opacity="1.000000" stroke="none" 
	d="
M217.348511,262.197113 
	C224.301376,253.902634 228.901718,244.469894 231.549026,233.402313 
	C237.425125,233.015381 242.773941,233.028687 248.122772,233.041992 
	C247.578674,244.260864 243.580353,254.311600 237.429764,263.888550 
	C230.646927,263.493835 224.175644,262.950409 217.348511,262.197113 
z"/>
<path fill="#000000" opacity="1.000000" stroke="none" 
	d="
M330.410248,216.085541 
	C327.453339,213.178436 324.790710,210.399918 321.980408,207.314575 
	C325.161804,203.752914 327.770355,207.696106 331.146149,207.874222 
	C337.105194,210.901611 342.671234,213.955460 348.597046,217.061508 
	C353.390503,220.665115 357.824127,224.216522 362.568481,227.901886 
	C368.338898,234.611740 373.798584,241.187622 379.567322,247.901947 
	C383.588196,256.102112 387.300049,264.163849 391.082489,272.601593 
	C392.257904,276.727875 393.362793,280.478149 394.467651,284.228424 
	C394.152435,284.349274 393.837219,284.470123 393.522003,284.590973 
	C391.590668,282.468903 389.659332,280.346802 387.277771,277.781097 
	C380.900940,270.855286 374.974365,264.373077 369.018860,257.544128 
	C361.367035,249.115372 353.744141,241.033356 345.981506,232.639496 
	C343.933655,230.204697 342.025574,228.081726 339.983887,225.656906 
	C338.248657,223.867599 336.647003,222.380173 335.045380,220.892731 
	C333.598419,219.333206 332.151459,217.773666 330.410248,216.085541 
z"/>
<path fill="#6F7ED7" opacity="1.000000" stroke="none" 
	d="
M369.047791,257.890869 
	C374.974365,264.373077 380.900940,270.855286 386.970886,277.647736 
	C380.337646,278.313477 373.561066,278.668976 366.333679,279.032684 
	C360.330750,273.262695 354.778564,267.484497 348.977722,261.210266 
	C348.567047,260.461212 348.380524,260.227753 348.169586,260.013855 
	C348.114746,259.853821 348.059937,259.693817 348.420471,259.279175 
	C355.573151,258.646637 362.310486,258.268768 369.047791,257.890869 
z"/>
<path fill="#3A89D2" opacity="1.000000" stroke="none" 
	d="
M279.330109,154.818024 
	C279.278870,154.684540 279.377625,154.385315 279.716187,153.992111 
	C279.832703,154.171860 279.674103,154.423233 279.330109,154.818024 
z"/>
<path fill="#6086DA" opacity="1.000000" stroke="none" 
	d="
M248.453888,232.846603 
	C242.773941,233.028687 237.425125,233.015381 231.618683,233.003448 
	C231.451080,230.282791 231.741074,227.560791 232.098770,224.422180 
	C250.914413,224.003815 269.662476,223.968719 288.410156,224.038376 
	C291.035919,224.048126 293.659790,224.571640 296.700195,224.948944 
	C289.774323,227.361267 282.526764,230.064468 275.065338,231.896881 
	C267.347839,233.792175 259.497284,233.471420 251.774979,231.135986 
	C251.001770,230.902161 249.792114,232.111588 248.453888,232.846603 
z"/>
<path fill="#5D82DA" opacity="1.000000" stroke="none" 
	d="
M334.693970,221.118866 
	C336.647003,222.380173 338.248657,223.867599 339.557373,225.700180 
	C331.804230,226.377823 324.344025,226.710327 316.883820,227.042831 
	C315.302277,225.581070 313.720734,224.119308 312.011810,222.357239 
	C319.370483,221.819626 326.856506,221.582321 334.693970,221.118866 
z"/>
<path fill="#7C5CCD" opacity="1.000000" stroke="none" 
	d="
M325.111572,328.044983 
	C319.092194,340.159882 308.343048,345.930054 295.838470,347.789062 
	C281.702209,349.890625 269.137207,345.426880 259.250000,334.688599 
	C257.614166,332.911957 256.402924,330.744385 255.336563,328.243103 
	C258.437042,327.485809 261.198059,327.260223 263.955383,326.995728 
	C267.652374,326.641083 271.346436,326.256317 275.368683,326.037231 
	C285.521271,332.792999 295.271729,332.251923 305.310455,326.109650 
	C307.596710,326.558350 309.529205,326.828094 311.470734,326.990082 
	C316.015381,327.369202 320.564362,327.696625 325.111572,328.044983 
z"/>
<path fill="#717AD6" opacity="1.000000" stroke="none" 
	d="
M254.145844,284.995178 
	C260.632385,275.065399 269.304169,268.487152 281.147186,265.825470 
	C296.906311,262.283630 314.813690,268.882965 323.762665,282.216705 
	C324.036713,282.625000 324.426941,282.955322 324.339844,283.660095 
	C322.108398,283.998810 320.294830,283.910034 318.492828,284.016724 
	C312.979736,284.343109 307.471069,284.744568 301.577209,285.055115 
	C296.217346,283.002655 291.295898,280.860352 285.736145,282.933319 
	C282.580261,284.110016 279.323364,285.015656 275.718872,285.884430 
	C268.265808,285.482056 261.205811,285.238617 254.145844,284.995178 
z"/>
<path fill="#6B89DA" opacity="1.000000" stroke="none" 
	d="
M369.018860,257.544128 
	C362.310486,258.268768 355.573151,258.646637 348.359985,259.032776 
	C339.975189,250.912552 332.066223,242.784027 324.492188,234.339508 
	C331.925140,233.666107 339.023193,233.308716 346.121216,232.951340 
	C353.744141,241.033356 361.367035,249.115372 369.018860,257.544128 
z"/>
<path fill="#7866D0" opacity="1.000000" stroke="none" 
	d="
M325.429565,327.893463 
	C320.564362,327.696625 316.015381,327.369202 311.470734,326.990082 
	C309.529205,326.828094 307.596710,326.558350 305.447205,325.806152 
	C311.450531,319.941132 314.792358,313.341431 314.624207,304.995300 
	C320.665100,304.995300 326.248749,304.994354 331.832397,304.993408 
	C331.888916,313.133911 330.349060,320.847382 325.429565,327.893463 
z"/>
<path fill="#7866D0" opacity="1.000000" stroke="none" 
	d="
M275.041779,325.884491 
	C271.346436,326.256317 267.652374,326.641083 263.955383,326.995728 
	C261.198059,327.260223 258.437042,327.485809 255.285217,327.888733 
	C249.453400,321.998901 249.148773,314.286133 248.491104,306.322693 
	C254.582886,305.868591 260.207550,305.930817 265.903992,306.418152 
	C265.458435,314.875519 269.865173,320.563263 275.041779,325.884491 
z"/>
<path fill="#7373D4" opacity="1.000000" stroke="none" 
	d="
M331.885803,304.588745 
	C326.248749,304.994354 320.665100,304.995300 314.556641,304.593750 
	C313.232941,295.792297 308.558594,289.845917 301.960693,285.116882 
	C307.471069,284.744568 312.979736,284.343109 318.492828,284.016724 
	C320.294830,283.910034 322.108398,283.998810 324.374634,283.997559 
	C326.886871,289.325012 328.979553,294.638855 330.968414,299.991272 
	C331.464020,301.324982 331.624634,302.783142 331.885803,304.588745 
z"/>
<path fill="#7373D4" opacity="1.000000" stroke="none" 
	d="
M265.832214,305.993042 
	C260.207550,305.930817 254.582886,305.868591 248.562958,305.899536 
	C248.104279,298.670990 250.255646,291.966614 253.990540,285.327759 
	C261.205811,285.238617 268.265808,285.482056 275.580139,286.193298 
	C270.167358,291.897949 265.394318,297.597412 265.832214,305.993042 
z"/>
<path fill="#6086DA" opacity="1.000000" stroke="none" 
	d="
M345.981506,232.639496 
	C339.023193,233.308716 331.925140,233.666107 324.350708,234.032486 
	C321.636658,231.911682 319.399017,229.781891 317.022583,227.347473 
	C324.344025,226.710327 331.804230,226.377823 339.690948,226.002045 
	C342.025574,228.081726 343.933655,230.204697 345.981506,232.639496 
z"/>
<path fill="#6B89DA" opacity="1.000000" stroke="none" 
	d="
M348.144958,260.273834 
	C348.380524,260.227753 348.567047,260.461212 348.845642,260.905579 
	C348.681580,260.909271 348.400940,260.721527 348.144958,260.273834 
z"/>
<path fill="#698BDB" opacity="1.000000" stroke="none" 
	d="
M197.833984,232.004044 
	C196.533279,241.342300 184.198792,248.961975 176.057449,249.017380 
	C163.382904,249.103638 153.950623,243.060776 151.409042,232.405228 
	C157.925308,231.666611 164.019318,231.310608 170.497467,230.976639 
	C173.908798,230.626602 176.936005,230.254532 180.143982,230.231384 
	C182.002777,231.052658 183.665085,231.850876 185.361923,231.932709 
	C189.510773,232.132828 193.675598,232.001801 197.833984,232.004044 
z"/>
<path fill="#4C71D6" opacity="1.000000" stroke="none" 
	d="
M151.885132,212.957657 
	C157.838028,197.967743 179.678207,194.543549 189.944931,204.495148 
	C192.109299,206.593094 193.992920,208.980637 195.663544,211.752914 
	C193.372726,212.513611 191.425079,212.957993 189.475693,212.965851 
	C176.945724,213.016403 164.415359,212.971313 151.885132,212.957657 
z"/>
<path fill="#567BD8" opacity="1.000000" stroke="none" 
	d="
M151.565979,213.156647 
	C164.415359,212.971313 176.945724,213.016403 189.475693,212.965851 
	C191.425079,212.957993 193.372726,212.513611 195.713593,212.110748 
	C197.061508,214.381531 198.016998,216.812668 198.446320,219.622284 
	C192.335602,220.000793 186.751083,220.000793 181.004013,219.677277 
	C173.326508,214.229523 169.788574,215.152222 166.375885,223.005646 
	C160.334518,223.004959 154.750427,223.005783 149.166336,223.006622 
	C149.859833,219.789627 150.553329,216.572647 151.565979,213.156647 
z"/>
<path fill="#6086DA" opacity="1.000000" stroke="none" 
	d="
M149.099655,223.415680 
	C154.750427,223.005783 160.334518,223.004959 166.442657,223.388351 
	C168.015564,226.166580 169.064438,228.560593 170.113312,230.954590 
	C164.019318,231.310608 157.925308,231.666611 151.355865,232.030426 
	C150.264618,229.300415 149.648788,226.562576 149.099655,223.415680 
z"/>
<path fill="#6086DA" opacity="1.000000" stroke="none" 
	d="
M198.003723,231.664658 
	C193.675598,232.001801 189.510773,232.132828 185.361923,231.932709 
	C183.665085,231.850876 182.002777,231.052658 180.279236,229.917068 
	C180.877808,227.837326 181.521896,226.420822 182.623306,225.003220 
	C188.664932,225.003067 194.249237,225.004013 199.833527,225.004959 
	C199.280182,227.111725 198.726822,229.218506 198.003723,231.664658 
z"/>
<path fill="#597FD9" opacity="1.000000" stroke="none" 
	d="
M199.905045,224.631927 
	C194.249237,225.004013 188.664932,225.003067 182.551437,224.634918 
	C181.737015,222.845398 181.451782,221.423096 181.166550,220.000793 
	C186.751083,220.000793 192.335602,220.000793 198.377274,220.001175 
	C199.215134,221.420685 199.595840,222.839798 199.905045,224.631927 
z"/>
<path fill="#000000" opacity="1.000000" stroke="none" 
	d="
M265.903992,306.418152 
	C265.394318,297.597412 270.167358,291.897949 275.973236,286.352234 
	C279.323364,285.015656 282.580261,284.110016 285.736145,282.933319 
	C291.295898,280.860352 296.217346,283.002655 301.577209,285.055115 
	C308.558594,289.845917 313.232941,295.792297 314.099396,304.592773 
	C314.792358,313.341431 311.450531,319.941132 305.097565,325.578247 
	C295.271729,332.251923 285.521271,332.792999 275.368683,326.037231 
	C269.865173,320.563263 265.458435,314.875519 265.903992,306.418152 
z"/>
<path fill="#000000" opacity="1.000000" stroke="none" 
	d="
M181.004013,219.677277 
	C181.451782,221.423096 181.737015,222.845398 182.094116,224.636017 
	C181.521896,226.420822 180.877808,227.837326 180.098450,229.568146 
	C176.936005,230.254532 173.908798,230.626602 170.497467,230.976639 
	C169.064438,228.560593 168.015564,226.166580 166.899918,223.389862 
	C169.788574,215.152222 173.326508,214.229523 181.004013,219.677277 
z"/>
</svg>